<svg width="375" height="812" viewBox="0 0 375 812" fill="none" xmlns="http://www.w3.org/2000/svg">
<g filter="url(#filter0_n_147_11643)">
<rect width="375" height="812" fill="url(#paint0_linear_147_11643)"/>
<rect x="24" y="32" width="104.333" height="6" rx="3" fill="#99CFFF"/>
<rect x="135.333" y="32" width="104.333" height="6" rx="3" fill="#666666"/>
<rect x="246.667" y="32" width="104.333" height="6" rx="3" fill="#666666"/>
<g filter="url(#filter1_dddn_147_11643)">
<path d="M81.5107 200V185.542H83.2614V191.98H90.9704V185.542H92.7211V200H90.9704V193.534H83.2614V200H81.5107ZM96.7954 200V189.157H98.4614V200H96.7954ZM97.6425 187.349C97.3178 187.349 97.0378 187.239 96.8025 187.018C96.5718 186.796 96.4565 186.531 96.4565 186.22C96.4565 185.909 96.5718 185.643 96.8025 185.422C97.0378 185.201 97.3178 185.09 97.6425 185.09C97.9673 185.09 98.2449 185.201 98.4755 185.422C98.7109 185.643 98.8285 185.909 98.8285 186.22C98.8285 186.531 98.7109 186.796 98.4755 187.018C98.2449 187.239 97.9673 187.349 97.6425 187.349ZM104.793 198.023L104.68 198.786C104.6 199.322 104.478 199.896 104.313 200.508C104.153 201.12 103.986 201.697 103.812 202.238C103.638 202.779 103.494 203.21 103.381 203.53H102.11C102.172 203.229 102.252 202.831 102.35 202.337C102.449 201.843 102.548 201.29 102.647 200.678C102.75 200.071 102.835 199.449 102.901 198.814L102.986 198.023H104.793ZM117.038 185.542V200H115.287V185.542H117.038ZM130.695 200.254C130.007 200.254 129.384 200.125 128.824 199.866C128.264 199.602 127.819 199.223 127.49 198.729C127.16 198.23 126.995 197.628 126.995 196.922C126.995 196.301 127.118 195.797 127.362 195.411C127.607 195.021 127.934 194.715 128.344 194.494C128.753 194.272 129.205 194.108 129.699 193.999C130.198 193.887 130.699 193.797 131.203 193.731C131.862 193.646 132.396 193.583 132.805 193.541C133.219 193.494 133.521 193.416 133.709 193.308C133.902 193.199 133.998 193.011 133.998 192.743V192.686C133.998 191.99 133.808 191.449 133.427 191.063C133.05 190.677 132.478 190.484 131.711 190.484C130.916 190.484 130.292 190.658 129.84 191.006C129.389 191.355 129.071 191.726 128.887 192.122L127.306 191.557C127.588 190.898 127.965 190.385 128.435 190.018C128.911 189.646 129.429 189.387 129.989 189.241C130.553 189.091 131.109 189.015 131.655 189.015C132.003 189.015 132.403 189.058 132.855 189.143C133.311 189.223 133.751 189.39 134.175 189.644C134.603 189.898 134.958 190.281 135.241 190.794C135.523 191.307 135.664 191.995 135.664 192.856V200H133.998V198.532H133.914C133.801 198.767 133.612 199.019 133.349 199.287C133.085 199.555 132.735 199.784 132.297 199.972C131.859 200.16 131.325 200.254 130.695 200.254ZM130.949 198.758C131.608 198.758 132.163 198.628 132.615 198.369C133.071 198.11 133.415 197.776 133.645 197.367C133.881 196.957 133.998 196.527 133.998 196.075V194.55C133.928 194.635 133.772 194.712 133.532 194.783C133.297 194.849 133.024 194.908 132.714 194.96C132.408 195.007 132.109 195.049 131.817 195.087C131.53 195.12 131.297 195.148 131.118 195.171C130.685 195.228 130.28 195.32 129.904 195.447C129.532 195.569 129.231 195.755 129 196.004C128.774 196.249 128.661 196.583 128.661 197.007C128.661 197.586 128.876 198.023 129.304 198.32C129.737 198.612 130.285 198.758 130.949 198.758ZM139.5 200V189.157H141.11V190.851H141.251C141.477 190.272 141.842 189.823 142.345 189.503C142.849 189.178 143.454 189.015 144.16 189.015C144.875 189.015 145.47 189.178 145.946 189.503C146.426 189.823 146.8 190.272 147.068 190.851H147.181C147.459 190.291 147.875 189.846 148.431 189.517C148.986 189.183 149.652 189.015 150.428 189.015C151.398 189.015 152.191 189.319 152.807 189.926C153.424 190.529 153.732 191.467 153.732 192.743V200H152.066V192.743C152.066 191.943 151.847 191.371 151.41 191.027C150.972 190.684 150.457 190.512 149.864 190.512C149.101 190.512 148.511 190.743 148.092 191.204C147.673 191.66 147.463 192.239 147.463 192.941V200H145.769V192.573C145.769 191.957 145.569 191.46 145.169 191.084C144.769 190.703 144.254 190.512 143.623 190.512C143.19 190.512 142.785 190.627 142.409 190.858C142.037 191.089 141.736 191.409 141.505 191.818C141.279 192.223 141.166 192.691 141.166 193.223V200H139.5Z" fill="#B3B3B3"/>
</g>
<g filter="url(#filter2_dddn_147_11643)">
<path d="M104.187 223.143C110.196 223.143 114.893 224.931 118.279 228.508C121.712 232.085 123.429 237.187 123.429 243.816V273.645H118.136V243.959C118.136 238.666 116.824 234.66 114.201 231.941C111.579 229.223 107.907 227.864 103.185 227.864C98.2258 227.864 94.363 229.319 91.5971 232.228C88.8311 235.089 87.4482 239.405 87.4482 245.175V273.645H82.1547V223.572H87.2336V232.013C90.4287 226.1 96.0798 223.143 104.187 223.143ZM161.186 274.074C156.226 274.074 151.72 272.977 147.666 270.784C143.661 268.542 140.513 265.49 138.224 261.628C135.983 257.765 134.862 253.425 134.862 248.609C134.862 243.792 135.983 239.452 138.224 235.59C140.513 231.727 143.661 228.699 147.666 226.505C151.72 224.264 156.226 223.143 161.186 223.143C166.146 223.143 170.605 224.24 174.563 226.433C178.569 228.627 181.716 231.679 184.005 235.59C186.294 239.452 187.439 243.792 187.439 248.609C187.439 253.425 186.294 257.789 184.005 261.699C181.716 265.562 178.569 268.59 174.563 270.784C170.605 272.977 166.146 274.074 161.186 274.074ZM161.186 269.353C165.144 269.353 168.721 268.471 171.916 266.706C175.111 264.894 177.615 262.414 179.427 259.267C181.239 256.072 182.145 252.519 182.145 248.609C182.145 244.698 181.239 241.169 179.427 238.022C177.615 234.827 175.111 232.347 171.916 230.582C168.721 228.77 165.144 227.864 161.186 227.864C157.228 227.864 153.627 228.77 150.385 230.582C147.19 232.347 144.662 234.827 142.802 238.022C140.99 241.169 140.084 244.698 140.084 248.609C140.084 252.519 140.99 256.072 142.802 259.267C144.662 262.414 147.19 264.894 150.385 266.706C153.627 268.471 157.228 269.353 161.186 269.353ZM233.496 273.645L222.051 257.55C220.763 257.693 219.428 257.765 218.045 257.765H204.597V273.645H199.304V223.572H218.045C224.435 223.572 229.443 225.098 233.067 228.15C236.691 231.202 238.503 235.399 238.503 240.74C238.503 244.65 237.502 247.965 235.499 250.683C233.544 253.354 230.73 255.285 227.058 256.477L239.29 273.645H233.496ZM217.902 253.258C222.862 253.258 226.653 252.161 229.276 249.968C231.899 247.774 233.21 244.698 233.21 240.74C233.21 236.686 231.899 233.587 229.276 231.441C226.653 229.247 222.862 228.15 217.902 228.15H204.597V253.258H217.902ZM271.455 223.143C277.941 223.143 283.044 225.05 286.763 228.866C290.531 232.633 292.415 238.093 292.415 245.247V273.645H287.193V258.909H255.718V273.645H250.568V245.247C250.568 238.093 252.428 232.633 256.147 228.866C259.915 225.05 265.018 223.143 271.455 223.143ZM287.193 254.331V244.746C287.193 239.166 285.81 234.97 283.044 232.156C280.278 229.295 276.415 227.864 271.455 227.864C266.496 227.864 262.633 229.295 259.867 232.156C257.101 234.97 255.718 239.166 255.718 244.746V254.331H287.193Z" fill="url(#paint1_radial_147_11643)"/>
</g>
<g filter="url(#filter3_dddn_147_11643)">
<path d="M83.6235 312.542C83.3529 312.542 83.1116 312.519 82.8996 312.474C82.6876 312.434 82.5411 312.393 82.4599 312.352L82.8658 310.945C83.2537 311.044 83.5965 311.081 83.8941 311.053C84.1918 311.026 84.4556 310.893 84.6857 310.654C84.9202 310.42 85.1344 310.039 85.3284 309.511L85.626 308.699L81.7833 298.254H83.5153L86.3838 306.534H86.492L89.3605 298.254H91.0924L86.6814 310.16C86.483 310.697 86.2372 311.141 85.944 311.493C85.6508 311.85 85.3103 312.113 84.9225 312.285C84.5391 312.456 84.1061 312.542 83.6235 312.542ZM97.8113 308.862C96.8732 308.862 96.0501 308.638 95.342 308.192C94.6384 307.745 94.0881 307.121 93.6912 306.318C93.2988 305.515 93.1026 304.577 93.1026 303.503C93.1026 302.421 93.2988 301.476 93.6912 300.669C94.0881 299.861 94.6384 299.234 95.342 298.788C96.0501 298.341 96.8732 298.118 97.8113 298.118C98.7494 298.118 99.5703 298.341 100.274 298.788C100.982 299.234 101.532 299.861 101.925 300.669C102.322 301.476 102.52 302.421 102.52 303.503C102.52 304.577 102.322 305.515 101.925 306.318C101.532 307.121 100.982 307.745 100.274 308.192C99.5703 308.638 98.7494 308.862 97.8113 308.862ZM97.8113 307.427C98.5239 307.427 99.1102 307.245 99.5703 306.879C100.03 306.514 100.371 306.034 100.592 305.438C100.813 304.843 100.923 304.198 100.923 303.503C100.923 302.809 100.813 302.162 100.592 301.562C100.371 300.962 100.03 300.477 99.5703 300.107C99.1102 299.737 98.5239 299.552 97.8113 299.552C97.0987 299.552 96.5124 299.737 96.0523 300.107C95.5923 300.477 95.2518 300.962 95.0308 301.562C94.8098 302.162 94.6993 302.809 94.6993 303.503C94.6993 304.198 94.8098 304.843 95.0308 305.438C95.2518 306.034 95.5923 306.514 96.0523 306.879C96.5124 307.245 97.0987 307.427 97.8113 307.427ZM112.268 304.396V298.254H113.865V308.645H112.268V306.886H112.16C111.916 307.414 111.537 307.862 111.023 308.232C110.509 308.598 109.86 308.78 109.075 308.78C108.425 308.78 107.848 308.638 107.343 308.354C106.838 308.065 106.441 307.632 106.152 307.055C105.864 306.473 105.719 305.74 105.719 304.856V298.254H107.316V304.748C107.316 305.506 107.528 306.11 107.952 306.561C108.38 307.012 108.926 307.238 109.589 307.238C109.986 307.238 110.39 307.136 110.8 306.933C111.215 306.73 111.562 306.419 111.842 306C112.126 305.58 112.268 305.046 112.268 304.396ZM117.551 308.645V298.254H119.093V299.823H119.202C119.391 299.309 119.734 298.892 120.23 298.571C120.726 298.251 121.285 298.091 121.908 298.091C122.025 298.091 122.172 298.093 122.348 298.098C122.523 298.102 122.657 298.109 122.747 298.118V299.742C122.693 299.728 122.569 299.708 122.375 299.681C122.185 299.649 121.984 299.634 121.773 299.634C121.267 299.634 120.816 299.74 120.419 299.952C120.027 300.159 119.716 300.448 119.486 300.818C119.26 301.183 119.148 301.6 119.148 302.069V308.645H117.551ZM136.149 298.254V299.607H130.547V298.254H136.149ZM132.225 308.645V296.819C132.225 296.224 132.365 295.728 132.645 295.331C132.924 294.934 133.287 294.636 133.734 294.438C134.18 294.239 134.652 294.14 135.148 294.14C135.54 294.14 135.86 294.172 136.108 294.235C136.356 294.298 136.541 294.357 136.663 294.411L136.203 295.791C136.122 295.764 136.009 295.73 135.865 295.689C135.725 295.649 135.54 295.629 135.31 295.629C134.782 295.629 134.401 295.762 134.167 296.028C133.937 296.294 133.822 296.684 133.822 297.198V308.645H132.225ZM139.149 308.645V298.254H140.745V308.645H139.149ZM139.96 296.522C139.649 296.522 139.381 296.416 139.155 296.204C138.934 295.992 138.824 295.737 138.824 295.439C138.824 295.141 138.934 294.887 139.155 294.675C139.381 294.463 139.649 294.357 139.96 294.357C140.272 294.357 140.538 294.463 140.759 294.675C140.984 294.887 141.097 295.141 141.097 295.439C141.097 295.737 140.984 295.992 140.759 296.204C140.538 296.416 140.272 296.522 139.96 296.522ZM146.028 302.394V308.645H144.432V298.254H145.974V299.877H146.109C146.353 299.349 146.723 298.926 147.219 298.605C147.715 298.281 148.355 298.118 149.14 298.118C149.844 298.118 150.459 298.263 150.987 298.551C151.515 298.835 151.925 299.268 152.218 299.85C152.512 300.427 152.658 301.158 152.658 302.042V308.645H151.062V302.15C151.062 301.334 150.85 300.698 150.426 300.243C150.002 299.782 149.42 299.552 148.68 299.552C148.171 299.552 147.715 299.663 147.314 299.884C146.917 300.105 146.603 300.427 146.373 300.851C146.143 301.275 146.028 301.79 146.028 302.394ZM159.396 308.889C158.737 308.889 158.14 308.765 157.603 308.516C157.066 308.264 156.64 307.901 156.324 307.427C156.009 306.949 155.851 306.372 155.851 305.695C155.851 305.1 155.968 304.617 156.202 304.248C156.437 303.873 156.75 303.58 157.143 303.368C157.535 303.156 157.968 302.998 158.442 302.895C158.92 302.786 159.4 302.701 159.883 302.637C160.514 302.556 161.026 302.495 161.419 302.455C161.815 302.41 162.104 302.335 162.285 302.232C162.469 302.128 162.562 301.947 162.562 301.69V301.636C162.562 300.969 162.379 300.45 162.014 300.08C161.653 299.71 161.105 299.525 160.37 299.525C159.608 299.525 159.01 299.692 158.577 300.026C158.144 300.36 157.84 300.716 157.664 301.095L156.148 300.554C156.419 299.922 156.78 299.431 157.231 299.079C157.686 298.723 158.182 298.475 158.719 298.335C159.26 298.19 159.793 298.118 160.316 298.118C160.65 298.118 161.033 298.159 161.466 298.24C161.903 298.317 162.325 298.477 162.731 298.72C163.141 298.964 163.482 299.331 163.753 299.823C164.023 300.315 164.158 300.973 164.158 301.799V308.645H162.562V307.238H162.481C162.372 307.463 162.192 307.705 161.939 307.962C161.687 308.219 161.351 308.438 160.931 308.618C160.512 308.798 160 308.889 159.396 308.889ZM159.639 307.454C160.271 307.454 160.803 307.33 161.236 307.082C161.673 306.834 162.003 306.514 162.224 306.122C162.449 305.729 162.562 305.316 162.562 304.884V303.422C162.494 303.503 162.345 303.578 162.115 303.645C161.89 303.709 161.628 303.765 161.331 303.815C161.037 303.86 160.751 303.9 160.471 303.936C160.196 303.968 159.973 303.995 159.802 304.018C159.387 304.072 158.999 304.16 158.638 304.281C158.282 304.399 157.993 304.577 157.772 304.816C157.556 305.05 157.447 305.371 157.447 305.777C157.447 306.331 157.653 306.751 158.063 307.035C158.478 307.315 159.003 307.454 159.639 307.454ZM169.431 302.394V308.645H167.835V298.254H169.377V299.877H169.512C169.756 299.349 170.126 298.926 170.622 298.605C171.118 298.281 171.759 298.118 172.543 298.118C173.247 298.118 173.863 298.263 174.39 298.551C174.918 298.835 175.328 299.268 175.622 299.85C175.915 300.427 176.061 301.158 176.061 302.042V308.645H174.465V302.15C174.465 301.334 174.253 300.698 173.829 300.243C173.405 299.782 172.823 299.552 172.083 299.552C171.574 299.552 171.118 299.663 170.717 299.884C170.32 300.105 170.006 300.427 169.776 300.851C169.546 301.275 169.431 301.79 169.431 302.394ZM183.962 308.862C182.988 308.862 182.149 308.631 181.446 308.171C180.742 307.711 180.201 307.078 179.822 306.27C179.443 305.463 179.254 304.541 179.254 303.503C179.254 302.448 179.448 301.517 179.836 300.709C180.228 299.897 180.774 299.264 181.473 298.808C182.176 298.348 182.997 298.118 183.935 298.118C184.666 298.118 185.325 298.254 185.911 298.524C186.497 298.795 186.978 299.174 187.352 299.661C187.726 300.148 187.958 300.716 188.049 301.366H186.452C186.33 300.892 186.06 300.473 185.64 300.107C185.225 299.737 184.666 299.552 183.962 299.552C183.34 299.552 182.794 299.715 182.325 300.04C181.861 300.36 181.498 300.813 181.236 301.399C180.979 301.981 180.85 302.664 180.85 303.449C180.85 304.252 180.977 304.951 181.229 305.547C181.486 306.142 181.847 306.604 182.312 306.933C182.781 307.263 183.331 307.427 183.962 307.427C184.377 307.427 184.754 307.355 185.092 307.211C185.431 307.066 185.717 306.859 185.951 306.588C186.186 306.318 186.353 305.993 186.452 305.614H188.049C187.958 306.228 187.735 306.78 187.379 307.272C187.027 307.759 186.56 308.147 185.978 308.435C185.401 308.719 184.729 308.862 183.962 308.862ZM191.145 308.645V298.254H192.741V308.645H191.145ZM191.957 296.522C191.645 296.522 191.377 296.416 191.152 296.204C190.931 295.992 190.82 295.737 190.82 295.439C190.82 295.141 190.931 294.887 191.152 294.675C191.377 294.463 191.645 294.357 191.957 294.357C192.268 294.357 192.534 294.463 192.755 294.675C192.98 294.887 193.093 295.141 193.093 295.439C193.093 295.737 192.98 295.992 192.755 296.204C192.534 296.416 192.268 296.522 191.957 296.522ZM199.486 308.889C198.827 308.889 198.23 308.765 197.693 308.516C197.156 308.264 196.73 307.901 196.414 307.427C196.098 306.949 195.941 306.372 195.941 305.695C195.941 305.1 196.058 304.617 196.292 304.248C196.527 303.873 196.84 303.58 197.233 303.368C197.625 303.156 198.058 302.998 198.532 302.895C199.01 302.786 199.49 302.701 199.973 302.637C200.604 302.556 201.116 302.495 201.508 302.455C201.905 302.41 202.194 302.335 202.374 302.232C202.559 302.128 202.652 301.947 202.652 301.69V301.636C202.652 300.969 202.469 300.45 202.104 300.08C201.743 299.71 201.195 299.525 200.46 299.525C199.698 299.525 199.1 299.692 198.667 300.026C198.234 300.36 197.93 300.716 197.754 301.095L196.238 300.554C196.509 299.922 196.87 299.431 197.321 299.079C197.776 298.723 198.272 298.475 198.809 298.335C199.35 298.19 199.883 298.118 200.406 298.118C200.739 298.118 201.123 298.159 201.556 298.24C201.993 298.317 202.415 298.477 202.821 298.72C203.231 298.964 203.572 299.331 203.842 299.823C204.113 300.315 204.248 300.973 204.248 301.799V308.645H202.652V307.238H202.571C202.462 307.463 202.282 307.705 202.029 307.962C201.777 308.219 201.441 308.438 201.021 308.618C200.602 308.798 200.09 308.889 199.486 308.889ZM199.729 307.454C200.361 307.454 200.893 307.33 201.326 307.082C201.763 306.834 202.093 306.514 202.314 306.122C202.539 305.729 202.652 305.316 202.652 304.884V303.422C202.584 303.503 202.435 303.578 202.205 303.645C201.98 303.709 201.718 303.765 201.42 303.815C201.127 303.86 200.841 303.9 200.561 303.936C200.286 303.968 200.063 303.995 199.892 304.018C199.477 304.072 199.089 304.16 198.728 304.281C198.372 304.399 198.083 304.577 197.862 304.816C197.645 305.05 197.537 305.371 197.537 305.777C197.537 306.331 197.742 306.751 198.153 307.035C198.568 307.315 199.093 307.454 199.729 307.454ZM209.521 294.79V308.645H207.925V294.79H209.521ZM223.549 308.862C222.575 308.862 221.736 308.631 221.033 308.171C220.329 307.711 219.788 307.078 219.409 306.27C219.03 305.463 218.841 304.541 218.841 303.503C218.841 302.448 219.035 301.517 219.422 300.709C219.815 299.897 220.361 299.264 221.06 298.808C221.763 298.348 222.584 298.118 223.522 298.118C224.253 298.118 224.911 298.254 225.498 298.524C226.084 298.795 226.564 299.174 226.939 299.661C227.313 300.148 227.545 300.716 227.636 301.366H226.039C225.917 300.892 225.647 300.473 225.227 300.107C224.812 299.737 224.253 299.552 223.549 299.552C222.927 299.552 222.381 299.715 221.912 300.04C221.448 300.36 221.084 300.813 220.823 301.399C220.566 301.981 220.437 302.664 220.437 303.449C220.437 304.252 220.564 304.951 220.816 305.547C221.073 306.142 221.434 306.604 221.899 306.933C222.368 307.263 222.918 307.427 223.549 307.427C223.964 307.427 224.341 307.355 224.679 307.211C225.017 307.066 225.304 306.859 225.538 306.588C225.773 306.318 225.94 305.993 226.039 305.614H227.636C227.545 306.228 227.322 306.78 226.966 307.272C226.614 307.759 226.147 308.147 225.565 308.435C224.988 308.719 224.316 308.862 223.549 308.862ZM234.953 308.862C234.015 308.862 233.192 308.638 232.484 308.192C231.78 307.745 231.23 307.121 230.833 306.318C230.441 305.515 230.244 304.577 230.244 303.503C230.244 302.421 230.441 301.476 230.833 300.669C231.23 299.861 231.78 299.234 232.484 298.788C233.192 298.341 234.015 298.118 234.953 298.118C235.891 298.118 236.712 298.341 237.416 298.788C238.124 299.234 238.674 299.861 239.066 300.669C239.463 301.476 239.662 302.421 239.662 303.503C239.662 304.577 239.463 305.515 239.066 306.318C238.674 307.121 238.124 307.745 237.416 308.192C236.712 308.638 235.891 308.862 234.953 308.862ZM234.953 307.427C235.666 307.427 236.252 307.245 236.712 306.879C237.172 306.514 237.513 306.034 237.734 305.438C237.955 304.843 238.065 304.198 238.065 303.503C238.065 302.809 237.955 302.162 237.734 301.562C237.513 300.962 237.172 300.477 236.712 300.107C236.252 299.737 235.666 299.552 234.953 299.552C234.241 299.552 233.654 299.737 233.194 300.107C232.734 300.477 232.394 300.962 232.173 301.562C231.952 302.162 231.841 302.809 231.841 303.503C231.841 304.198 231.952 304.843 232.173 305.438C232.394 306.034 232.734 306.514 233.194 306.879C233.654 307.245 234.241 307.427 234.953 307.427ZM248.814 301.961V303.449H242.753V301.961H248.814ZM252.386 312.542V298.254H253.928V299.904H254.118C254.235 299.724 254.397 299.494 254.605 299.214C254.817 298.93 255.119 298.677 255.511 298.456C255.908 298.231 256.445 298.118 257.122 298.118C257.997 298.118 258.768 298.337 259.435 298.774C260.103 299.212 260.624 299.832 260.998 300.635C261.372 301.438 261.56 302.385 261.56 303.476C261.56 304.577 261.372 305.531 260.998 306.338C260.624 307.141 260.105 307.763 259.442 308.205C258.779 308.643 258.015 308.862 257.149 308.862C256.481 308.862 255.947 308.751 255.545 308.53C255.144 308.304 254.835 308.05 254.618 307.766C254.402 307.477 254.235 307.238 254.118 307.048H253.982V312.542H252.386ZM253.955 303.449C253.955 304.234 254.07 304.926 254.3 305.526C254.53 306.122 254.866 306.588 255.308 306.927C255.75 307.26 256.292 307.427 256.932 307.427C257.6 307.427 258.157 307.251 258.603 306.9C259.054 306.543 259.392 306.065 259.618 305.465C259.848 304.861 259.963 304.189 259.963 303.449C259.963 302.719 259.85 302.06 259.625 301.474C259.404 300.883 259.068 300.416 258.617 300.073C258.17 299.726 257.609 299.552 256.932 299.552C256.283 299.552 255.737 299.717 255.295 300.046C254.853 300.371 254.519 300.827 254.294 301.413C254.068 301.995 253.955 302.674 253.955 303.449ZM264.757 308.645V298.254H266.354V308.645H264.757ZM265.569 296.522C265.258 296.522 264.989 296.416 264.764 296.204C264.543 295.992 264.432 295.737 264.432 295.439C264.432 295.141 264.543 294.887 264.764 294.675C264.989 294.463 265.258 294.357 265.569 294.357C265.88 294.357 266.146 294.463 266.367 294.675C266.593 294.887 266.706 295.141 266.706 295.439C266.706 295.737 266.593 295.992 266.367 296.204C266.146 296.416 265.88 296.522 265.569 296.522ZM271.637 294.79V308.645H270.04V294.79H271.637ZM279.545 308.862C278.606 308.862 277.783 308.638 277.075 308.192C276.372 307.745 275.821 307.121 275.425 306.318C275.032 305.515 274.836 304.577 274.836 303.503C274.836 302.421 275.032 301.476 275.425 300.669C275.821 299.861 276.372 299.234 277.075 298.788C277.783 298.341 278.606 298.118 279.545 298.118C280.483 298.118 281.304 298.341 282.007 298.788C282.715 299.234 283.266 299.861 283.658 300.669C284.055 301.476 284.253 302.421 284.253 303.503C284.253 304.577 284.055 305.515 283.658 306.318C283.266 307.121 282.715 307.745 282.007 308.192C281.304 308.638 280.483 308.862 279.545 308.862ZM279.545 307.427C280.257 307.427 280.844 307.245 281.304 306.879C281.764 306.514 282.104 306.034 282.325 305.438C282.546 304.843 282.657 304.198 282.657 303.503C282.657 302.809 282.546 302.162 282.325 301.562C282.104 300.962 281.764 300.477 281.304 300.107C280.844 299.737 280.257 299.552 279.545 299.552C278.832 299.552 278.246 299.737 277.786 300.107C277.326 300.477 276.985 300.962 276.764 301.562C276.543 302.162 276.433 302.809 276.433 303.503C276.433 304.198 276.543 304.843 276.764 305.438C276.985 306.034 277.326 306.514 277.786 306.879C278.246 307.245 278.832 307.427 279.545 307.427ZM291.972 298.254V299.607H286.587V298.254H291.972ZM288.156 295.764H289.753V305.668C289.753 306.119 289.818 306.458 289.949 306.683C290.084 306.904 290.256 307.053 290.463 307.13C290.675 307.202 290.898 307.238 291.133 307.238C291.309 307.238 291.453 307.229 291.566 307.211C291.679 307.188 291.769 307.17 291.836 307.157L292.161 308.591C292.053 308.631 291.902 308.672 291.708 308.713C291.514 308.758 291.268 308.78 290.97 308.78C290.519 308.78 290.077 308.683 289.644 308.489C289.216 308.295 288.86 308 288.576 307.603C288.296 307.206 288.156 306.706 288.156 306.101V295.764Z" fill="#B3B3B3"/>
</g>
<path d="M26.8182 636.364V648H25.4091V636.364H26.8182ZM37.5071 648.182C36.6889 648.182 35.9844 647.989 35.3935 647.602C34.8026 647.216 34.348 646.684 34.0298 646.006C33.7116 645.328 33.5526 644.553 33.5526 643.682C33.5526 642.795 33.7154 642.013 34.0412 641.335C34.3707 640.653 34.8291 640.121 35.4162 639.739C36.0071 639.352 36.6965 639.159 37.4844 639.159C38.098 639.159 38.651 639.273 39.1435 639.5C39.6359 639.727 40.0393 640.045 40.3537 640.455C40.6681 640.864 40.8632 641.341 40.9389 641.886H39.598C39.4957 641.489 39.2685 641.136 38.9162 640.83C38.5677 640.519 38.098 640.364 37.5071 640.364C36.9844 640.364 36.526 640.5 36.1321 640.773C35.742 641.042 35.437 641.422 35.2173 641.915C35.0014 642.403 34.8935 642.977 34.8935 643.636C34.8935 644.311 34.9995 644.898 35.2116 645.398C35.4276 645.898 35.7306 646.286 36.1207 646.562C36.5147 646.839 36.9768 646.977 37.5071 646.977C37.8556 646.977 38.1719 646.917 38.456 646.795C38.7401 646.674 38.9806 646.5 39.1776 646.273C39.3745 646.045 39.5147 645.773 39.598 645.455H40.9389C40.8632 645.97 40.6757 646.434 40.3764 646.847C40.081 647.256 39.6889 647.581 39.2003 647.824C38.7154 648.062 38.151 648.182 37.5071 648.182ZM42.8991 648V639.273H44.1946V640.591H44.2855C44.4446 640.159 44.7325 639.809 45.1491 639.54C45.5658 639.271 46.0355 639.136 46.5582 639.136C46.6567 639.136 46.7798 639.138 46.9276 639.142C47.0753 639.146 47.187 639.152 47.2628 639.159V640.523C47.2173 640.511 47.1132 640.494 46.9503 640.472C46.7912 640.445 46.6226 640.432 46.4446 640.432C46.0204 640.432 45.6416 640.521 45.3082 640.699C44.9787 640.873 44.7173 641.116 44.5241 641.426C44.3348 641.733 44.2401 642.083 44.2401 642.477V648H42.8991ZM52.2457 648.182C51.4048 648.182 50.6795 647.996 50.0696 647.625C49.4635 647.25 48.9957 646.727 48.6662 646.057C48.3404 645.383 48.1776 644.598 48.1776 643.705C48.1776 642.811 48.3404 642.023 48.6662 641.341C48.9957 640.655 49.4541 640.121 50.0412 639.739C50.6321 639.352 51.3215 639.159 52.1094 639.159C52.5639 639.159 53.0128 639.235 53.456 639.386C53.8991 639.538 54.3026 639.784 54.6662 640.125C55.0298 640.462 55.3196 640.909 55.5355 641.466C55.7514 642.023 55.8594 642.708 55.8594 643.523V644.091H49.1321V642.932H54.4957C54.4957 642.439 54.3973 642 54.2003 641.614C54.0071 641.227 53.7306 640.922 53.3707 640.699C53.0147 640.475 52.5942 640.364 52.1094 640.364C51.5753 640.364 51.1132 640.496 50.723 640.761C50.3366 641.023 50.0393 641.364 49.831 641.784C49.6226 642.205 49.5185 642.655 49.5185 643.136V643.909C49.5185 644.568 49.6321 645.127 49.8594 645.585C50.0904 646.04 50.4105 646.386 50.8196 646.625C51.2287 646.86 51.7041 646.977 52.2457 646.977C52.598 646.977 52.9162 646.928 53.2003 646.83C53.4882 646.727 53.7363 646.576 53.9446 646.375C54.1529 646.17 54.3139 645.917 54.4276 645.614L55.723 645.977C55.5866 646.417 55.3575 646.803 55.0355 647.136C54.7135 647.466 54.3158 647.723 53.8423 647.909C53.3688 648.091 52.8366 648.182 52.2457 648.182ZM60.4673 648.205C59.9143 648.205 59.4124 648.1 58.9616 647.892C58.5109 647.68 58.1529 647.375 57.8878 646.977C57.6226 646.576 57.4901 646.091 57.4901 645.523C57.4901 645.023 57.5885 644.617 57.7855 644.307C57.9825 643.992 58.2457 643.746 58.5753 643.568C58.9048 643.39 59.2685 643.258 59.6662 643.17C60.0677 643.08 60.4711 643.008 60.8764 642.955C61.4067 642.886 61.8366 642.835 62.1662 642.801C62.4995 642.763 62.742 642.701 62.8935 642.614C63.0488 642.527 63.1264 642.375 63.1264 642.159V642.114C63.1264 641.553 62.973 641.117 62.6662 640.807C62.3632 640.496 61.9029 640.341 61.2855 640.341C60.6454 640.341 60.1435 640.481 59.7798 640.761C59.4162 641.042 59.1605 641.341 59.0128 641.659L57.7401 641.205C57.9673 640.674 58.2704 640.261 58.6491 639.966C59.0317 639.667 59.4484 639.458 59.8991 639.341C60.3537 639.22 60.8007 639.159 61.2401 639.159C61.5204 639.159 61.8423 639.193 62.206 639.261C62.5734 639.326 62.9276 639.46 63.2685 639.665C63.6132 639.869 63.8991 640.178 64.1264 640.591C64.3537 641.004 64.4673 641.557 64.4673 642.25V648H63.1264V646.818H63.0582C62.9673 647.008 62.8158 647.21 62.6037 647.426C62.3916 647.642 62.1094 647.826 61.7571 647.977C61.4048 648.129 60.9749 648.205 60.4673 648.205ZM60.6719 647C61.2022 647 61.6491 646.896 62.0128 646.688C62.3802 646.479 62.6567 646.21 62.8423 645.881C63.0317 645.551 63.1264 645.205 63.1264 644.841V643.614C63.0696 643.682 62.9446 643.744 62.7514 643.801C62.562 643.854 62.3423 643.902 62.0923 643.943C61.8461 643.981 61.6056 644.015 61.3707 644.045C61.1397 644.072 60.9522 644.095 60.8082 644.114C60.4598 644.159 60.134 644.233 59.831 644.335C59.5317 644.434 59.2893 644.583 59.1037 644.784C58.9219 644.981 58.831 645.25 58.831 645.591C58.831 646.057 59.0033 646.409 59.348 646.648C59.6965 646.883 60.1378 647 60.6719 647ZM70.7102 639.273V640.409H66.1875V639.273H70.7102ZM67.5057 637.182H68.8466V645.5C68.8466 645.879 68.9015 646.163 69.0114 646.352C69.125 646.538 69.2689 646.663 69.4432 646.727C69.6212 646.788 69.8087 646.818 70.0057 646.818C70.1534 646.818 70.2746 646.811 70.3693 646.795C70.464 646.777 70.5398 646.761 70.5966 646.75L70.8693 647.955C70.7784 647.989 70.6515 648.023 70.4886 648.057C70.3258 648.095 70.1193 648.114 69.8693 648.114C69.4905 648.114 69.1193 648.032 68.7557 647.869C68.3958 647.706 68.0966 647.458 67.858 647.125C67.6231 646.792 67.5057 646.371 67.5057 645.864V637.182ZM76.2926 648.182C75.4517 648.182 74.7263 647.996 74.1165 647.625C73.5104 647.25 73.0426 646.727 72.7131 646.057C72.3873 645.383 72.2244 644.598 72.2244 643.705C72.2244 642.811 72.3873 642.023 72.7131 641.341C73.0426 640.655 73.5009 640.121 74.0881 639.739C74.679 639.352 75.3684 639.159 76.1562 639.159C76.6108 639.159 77.0597 639.235 77.5028 639.386C77.946 639.538 78.3494 639.784 78.7131 640.125C79.0767 640.462 79.3665 640.909 79.5824 641.466C79.7983 642.023 79.9062 642.708 79.9062 643.523V644.091H73.179V642.932H78.5426C78.5426 642.439 78.4441 642 78.2472 641.614C78.054 641.227 77.7775 640.922 77.4176 640.699C77.0616 640.475 76.6411 640.364 76.1562 640.364C75.6222 640.364 75.16 640.496 74.7699 640.761C74.3835 641.023 74.0862 641.364 73.8778 641.784C73.6695 642.205 73.5653 642.655 73.5653 643.136V643.909C73.5653 644.568 73.679 645.127 73.9062 645.585C74.1373 646.04 74.4574 646.386 74.8665 646.625C75.2756 646.86 75.7509 646.977 76.2926 646.977C76.6449 646.977 76.9631 646.928 77.2472 646.83C77.535 646.727 77.7831 646.576 77.9915 646.375C78.1998 646.17 78.3608 645.917 78.4744 645.614L79.7699 645.977C79.6335 646.417 79.4044 646.803 79.0824 647.136C78.7604 647.466 78.3627 647.723 77.8892 647.909C77.4157 648.091 76.8835 648.182 76.2926 648.182ZM89.0142 648.205C88.4612 648.205 87.9593 648.1 87.5085 647.892C87.0578 647.68 86.6998 647.375 86.4347 646.977C86.1695 646.576 86.0369 646.091 86.0369 645.523C86.0369 645.023 86.1354 644.617 86.3324 644.307C86.5294 643.992 86.7926 643.746 87.1222 643.568C87.4517 643.39 87.8153 643.258 88.2131 643.17C88.6146 643.08 89.018 643.008 89.4233 642.955C89.9536 642.886 90.3835 642.835 90.7131 642.801C91.0464 642.763 91.2888 642.701 91.4403 642.614C91.5956 642.527 91.6733 642.375 91.6733 642.159V642.114C91.6733 641.553 91.5199 641.117 91.2131 640.807C90.91 640.496 90.4498 640.341 89.8324 640.341C89.1922 640.341 88.6903 640.481 88.3267 640.761C87.9631 641.042 87.7074 641.341 87.5597 641.659L86.2869 641.205C86.5142 640.674 86.8172 640.261 87.196 639.966C87.5786 639.667 87.9953 639.458 88.446 639.341C88.9006 639.22 89.3475 639.159 89.7869 639.159C90.0672 639.159 90.3892 639.193 90.7528 639.261C91.1203 639.326 91.4744 639.46 91.8153 639.665C92.16 639.869 92.446 640.178 92.6733 640.591C92.9006 641.004 93.0142 641.557 93.0142 642.25V648H91.6733V646.818H91.6051C91.5142 647.008 91.3627 647.21 91.1506 647.426C90.9384 647.642 90.6563 647.826 90.304 647.977C89.9517 648.129 89.5218 648.205 89.0142 648.205ZM89.2188 647C89.7491 647 90.196 646.896 90.5597 646.688C90.9271 646.479 91.2036 646.21 91.3892 645.881C91.5786 645.551 91.6733 645.205 91.6733 644.841V643.614C91.6165 643.682 91.4915 643.744 91.2983 643.801C91.1089 643.854 90.8892 643.902 90.6392 643.943C90.393 643.981 90.1525 644.015 89.9176 644.045C89.6866 644.072 89.4991 644.095 89.3551 644.114C89.0066 644.159 88.6809 644.233 88.3778 644.335C88.0786 644.434 87.8362 644.583 87.6506 644.784C87.4688 644.981 87.3778 645.25 87.3778 645.591C87.3778 646.057 87.5502 646.409 87.8949 646.648C88.2434 646.883 88.6847 647 89.2188 647ZM106.143 641.227L104.939 641.568C104.863 641.367 104.751 641.172 104.604 640.983C104.46 640.79 104.263 640.631 104.013 640.506C103.763 640.381 103.443 640.318 103.053 640.318C102.518 640.318 102.073 640.441 101.717 640.688C101.365 640.93 101.189 641.239 101.189 641.614C101.189 641.947 101.31 642.21 101.553 642.403C101.795 642.597 102.174 642.758 102.689 642.886L103.984 643.205C104.765 643.394 105.346 643.684 105.729 644.074C106.111 644.46 106.303 644.958 106.303 645.568C106.303 646.068 106.159 646.515 105.871 646.909C105.587 647.303 105.189 647.614 104.678 647.841C104.166 648.068 103.571 648.182 102.893 648.182C102.003 648.182 101.267 647.989 100.683 647.602C100.1 647.216 99.7306 646.652 99.5753 645.909L100.848 645.591C100.969 646.061 101.198 646.413 101.536 646.648C101.876 646.883 102.321 647 102.871 647C103.496 647 103.992 646.867 104.359 646.602C104.731 646.333 104.916 646.011 104.916 645.636C104.916 645.333 104.81 645.08 104.598 644.875C104.386 644.667 104.06 644.511 103.621 644.409L102.166 644.068C101.367 643.879 100.78 643.585 100.405 643.188C100.034 642.786 99.848 642.284 99.848 641.682C99.848 641.189 99.9863 640.754 100.263 640.375C100.543 639.996 100.924 639.699 101.405 639.483C101.89 639.267 102.439 639.159 103.053 639.159C103.916 639.159 104.594 639.348 105.087 639.727C105.583 640.106 105.935 640.606 106.143 641.227ZM112.116 639.273V640.409H107.594V639.273H112.116ZM108.912 637.182H110.253V645.5C110.253 645.879 110.308 646.163 110.418 646.352C110.531 646.538 110.675 646.663 110.849 646.727C111.027 646.788 111.215 646.818 111.412 646.818C111.56 646.818 111.681 646.811 111.776 646.795C111.87 646.777 111.946 646.761 112.003 646.75L112.276 647.955C112.185 647.989 112.058 648.023 111.895 648.057C111.732 648.095 111.526 648.114 111.276 648.114C110.897 648.114 110.526 648.032 110.162 647.869C109.802 647.706 109.503 647.458 109.264 647.125C109.029 646.792 108.912 646.371 108.912 645.864V637.182ZM116.702 648.205C116.149 648.205 115.647 648.1 115.196 647.892C114.745 647.68 114.387 647.375 114.122 646.977C113.857 646.576 113.724 646.091 113.724 645.523C113.724 645.023 113.823 644.617 114.02 644.307C114.217 643.992 114.48 643.746 114.81 643.568C115.139 643.39 115.503 643.258 115.901 643.17C116.302 643.08 116.705 643.008 117.111 642.955C117.641 642.886 118.071 642.835 118.401 642.801C118.734 642.763 118.976 642.701 119.128 642.614C119.283 642.527 119.361 642.375 119.361 642.159V642.114C119.361 641.553 119.207 641.117 118.901 640.807C118.598 640.496 118.137 640.341 117.52 640.341C116.88 640.341 116.378 640.481 116.014 640.761C115.651 641.042 115.395 641.341 115.247 641.659L113.974 641.205C114.202 640.674 114.505 640.261 114.884 639.966C115.266 639.667 115.683 639.458 116.134 639.341C116.588 639.22 117.035 639.159 117.474 639.159C117.755 639.159 118.077 639.193 118.44 639.261C118.808 639.326 119.162 639.46 119.503 639.665C119.848 639.869 120.134 640.178 120.361 640.591C120.588 641.004 120.702 641.557 120.702 642.25V648H119.361V646.818H119.293C119.202 647.008 119.05 647.21 118.838 647.426C118.626 647.642 118.344 647.826 117.991 647.977C117.639 648.129 117.209 648.205 116.702 648.205ZM116.906 647C117.437 647 117.884 646.896 118.247 646.688C118.615 646.479 118.891 646.21 119.077 645.881C119.266 645.551 119.361 645.205 119.361 644.841V643.614C119.304 643.682 119.179 643.744 118.986 643.801C118.796 643.854 118.577 643.902 118.327 643.943C118.08 643.981 117.84 644.015 117.605 644.045C117.374 644.072 117.187 644.095 117.043 644.114C116.694 644.159 116.368 644.233 116.065 644.335C115.766 644.434 115.524 644.583 115.338 644.784C115.156 644.981 115.065 645.25 115.065 645.591C115.065 646.057 115.238 646.409 115.582 646.648C115.931 646.883 116.372 647 116.906 647ZM123.149 648V639.273H124.445V640.591H124.536C124.695 640.159 124.982 639.809 125.399 639.54C125.816 639.271 126.286 639.136 126.808 639.136C126.907 639.136 127.03 639.138 127.178 639.142C127.325 639.146 127.437 639.152 127.513 639.159V640.523C127.467 640.511 127.363 640.494 127.2 640.472C127.041 640.445 126.873 640.432 126.695 640.432C126.27 640.432 125.892 640.521 125.558 640.699C125.229 640.873 124.967 641.116 124.774 641.426C124.585 641.733 124.49 642.083 124.49 642.477V648H123.149ZM133.445 639.273V640.409H128.922V639.273H133.445ZM130.24 637.182H131.581V645.5C131.581 645.879 131.636 646.163 131.746 646.352C131.859 646.538 132.003 646.663 132.178 646.727C132.356 646.788 132.543 646.818 132.74 646.818C132.888 646.818 133.009 646.811 133.104 646.795C133.198 646.777 133.274 646.761 133.331 646.75L133.604 647.955C133.513 647.989 133.386 648.023 133.223 648.057C133.06 648.095 132.854 648.114 132.604 648.114C132.225 648.114 131.854 648.032 131.49 647.869C131.13 647.706 130.831 647.458 130.592 647.125C130.357 646.792 130.24 646.371 130.24 645.864V637.182ZM139.027 648.182C138.186 648.182 137.461 647.996 136.851 647.625C136.245 647.25 135.777 646.727 135.447 646.057C135.122 645.383 134.959 644.598 134.959 643.705C134.959 642.811 135.122 642.023 135.447 641.341C135.777 640.655 136.235 640.121 136.822 639.739C137.413 639.352 138.103 639.159 138.891 639.159C139.345 639.159 139.794 639.235 140.237 639.386C140.68 639.538 141.084 639.784 141.447 640.125C141.811 640.462 142.101 640.909 142.317 641.466C142.533 642.023 142.641 642.708 142.641 643.523V644.091H135.913V642.932H141.277C141.277 642.439 141.179 642 140.982 641.614C140.788 641.227 140.512 640.922 140.152 640.699C139.796 640.475 139.375 640.364 138.891 640.364C138.357 640.364 137.894 640.496 137.504 640.761C137.118 641.023 136.821 641.364 136.612 641.784C136.404 642.205 136.3 642.655 136.3 643.136V643.909C136.3 644.568 136.413 645.127 136.641 645.585C136.872 646.04 137.192 646.386 137.601 646.625C138.01 646.86 138.485 646.977 139.027 646.977C139.379 646.977 139.697 646.928 139.982 646.83C140.269 646.727 140.518 646.576 140.726 646.375C140.934 646.17 141.095 645.917 141.209 645.614L142.504 645.977C142.368 646.417 142.139 646.803 141.817 647.136C141.495 647.466 141.097 647.723 140.624 647.909C140.15 648.091 139.618 648.182 139.027 648.182ZM144.68 648V639.273H145.976V640.591H146.067C146.226 640.159 146.514 639.809 146.93 639.54C147.347 639.271 147.817 639.136 148.339 639.136C148.438 639.136 148.561 639.138 148.709 639.142C148.857 639.146 148.968 639.152 149.044 639.159V640.523C148.999 640.511 148.894 640.494 148.732 640.472C148.572 640.445 148.404 640.432 148.226 640.432C147.802 640.432 147.423 640.521 147.089 640.699C146.76 640.873 146.499 641.116 146.305 641.426C146.116 641.733 146.021 642.083 146.021 642.477V648H144.68ZM155.134 651.273V639.273H156.429V640.659H156.588C156.687 640.508 156.823 640.314 156.997 640.08C157.175 639.841 157.429 639.629 157.759 639.443C158.092 639.254 158.543 639.159 159.111 639.159C159.846 639.159 160.493 639.343 161.054 639.71C161.615 640.078 162.052 640.598 162.366 641.273C162.681 641.947 162.838 642.742 162.838 643.659C162.838 644.583 162.681 645.384 162.366 646.062C162.052 646.737 161.616 647.259 161.06 647.631C160.503 647.998 159.861 648.182 159.134 648.182C158.573 648.182 158.124 648.089 157.787 647.903C157.45 647.714 157.19 647.5 157.009 647.261C156.827 647.019 156.687 646.818 156.588 646.659H156.474V651.273H155.134ZM156.452 643.636C156.452 644.295 156.548 644.877 156.741 645.381C156.935 645.881 157.217 646.273 157.588 646.557C157.959 646.837 158.414 646.977 158.952 646.977C159.512 646.977 159.98 646.83 160.355 646.534C160.734 646.235 161.018 645.833 161.207 645.33C161.401 644.822 161.497 644.258 161.497 643.636C161.497 643.023 161.402 642.47 161.213 641.977C161.027 641.481 160.745 641.089 160.366 640.801C159.991 640.509 159.52 640.364 158.952 640.364C158.406 640.364 157.948 640.502 157.577 640.778C157.205 641.051 156.925 641.434 156.736 641.926C156.546 642.415 156.452 642.985 156.452 643.636ZM166.224 636.364V648H164.884V636.364H166.224ZM171.249 648.205C170.696 648.205 170.194 648.1 169.743 647.892C169.292 647.68 168.934 647.375 168.669 646.977C168.404 646.576 168.271 646.091 168.271 645.523C168.271 645.023 168.37 644.617 168.567 644.307C168.764 643.992 169.027 643.746 169.357 643.568C169.686 643.39 170.05 643.258 170.447 643.17C170.849 643.08 171.252 643.008 171.658 642.955C172.188 642.886 172.618 642.835 172.947 642.801C173.281 642.763 173.523 642.701 173.675 642.614C173.83 642.527 173.908 642.375 173.908 642.159V642.114C173.908 641.553 173.754 641.117 173.447 640.807C173.144 640.496 172.684 640.341 172.067 640.341C171.427 640.341 170.925 640.481 170.561 640.761C170.197 641.042 169.942 641.341 169.794 641.659L168.521 641.205C168.749 640.674 169.052 640.261 169.43 639.966C169.813 639.667 170.23 639.458 170.68 639.341C171.135 639.22 171.582 639.159 172.021 639.159C172.302 639.159 172.624 639.193 172.987 639.261C173.355 639.326 173.709 639.46 174.05 639.665C174.394 639.869 174.68 640.178 174.908 640.591C175.135 641.004 175.249 641.557 175.249 642.25V648H173.908V646.818H173.839C173.749 647.008 173.597 647.21 173.385 647.426C173.173 647.642 172.891 647.826 172.538 647.977C172.186 648.129 171.756 648.205 171.249 648.205ZM171.453 647C171.983 647 172.43 646.896 172.794 646.688C173.161 646.479 173.438 646.21 173.624 645.881C173.813 645.551 173.908 645.205 173.908 644.841V643.614C173.851 643.682 173.726 643.744 173.533 643.801C173.343 643.854 173.124 643.902 172.874 643.943C172.627 643.981 172.387 644.015 172.152 644.045C171.921 644.072 171.733 644.095 171.589 644.114C171.241 644.159 170.915 644.233 170.612 644.335C170.313 644.434 170.071 644.583 169.885 644.784C169.703 644.981 169.612 645.25 169.612 645.591C169.612 646.057 169.785 646.409 170.129 646.648C170.478 646.883 170.919 647 171.453 647ZM179.037 642.75V648H177.696V639.273H178.991V640.636H179.105C179.31 640.193 179.62 639.837 180.037 639.568C180.454 639.295 180.991 639.159 181.651 639.159C182.241 639.159 182.759 639.28 183.202 639.523C183.645 639.761 183.99 640.125 184.236 640.614C184.482 641.098 184.605 641.712 184.605 642.455V648H183.264V642.545C183.264 641.86 183.086 641.326 182.73 640.943C182.374 640.557 181.885 640.364 181.264 640.364C180.836 640.364 180.454 640.456 180.116 640.642C179.783 640.828 179.52 641.098 179.327 641.455C179.134 641.811 179.037 642.242 179.037 642.75ZM193.533 648L190.874 639.273H192.283L194.169 645.955H194.26L196.124 639.273H197.555L199.396 645.932H199.487L201.374 639.273H202.783L200.124 648H198.805L196.896 641.295H196.76L194.851 648H193.533ZM204.555 648V639.273H205.896V648H204.555ZM205.237 637.818C204.976 637.818 204.75 637.729 204.561 637.551C204.375 637.373 204.283 637.159 204.283 636.909C204.283 636.659 204.375 636.445 204.561 636.267C204.75 636.089 204.976 636 205.237 636C205.499 636 205.722 636.089 205.908 636.267C206.097 636.445 206.192 636.659 206.192 636.909C206.192 637.159 206.097 637.373 205.908 637.551C205.722 637.729 205.499 637.818 205.237 637.818ZM212.148 639.273V640.409H207.625V639.273H212.148ZM208.943 637.182H210.284V645.5C210.284 645.879 210.339 646.163 210.449 646.352C210.563 646.538 210.706 646.663 210.881 646.727C211.059 646.788 211.246 646.818 211.443 646.818C211.591 646.818 211.712 646.811 211.807 646.795C211.902 646.777 211.977 646.761 212.034 646.75L212.307 647.955C212.216 647.989 212.089 648.023 211.926 648.057C211.763 648.095 211.557 648.114 211.307 648.114C210.928 648.114 210.557 648.032 210.193 647.869C209.833 647.706 209.534 647.458 209.295 647.125C209.061 646.792 208.943 646.371 208.943 645.864V637.182ZM215.693 642.75V648H214.352V636.364H215.693V640.636H215.807C216.011 640.186 216.318 639.828 216.727 639.562C217.14 639.294 217.689 639.159 218.375 639.159C218.97 639.159 219.491 639.278 219.938 639.517C220.384 639.752 220.731 640.114 220.977 640.602C221.227 641.087 221.352 641.705 221.352 642.455V648H220.011V642.545C220.011 641.852 219.831 641.316 219.472 640.938C219.116 640.555 218.621 640.364 217.989 640.364C217.549 640.364 217.155 640.456 216.807 640.642C216.462 640.828 216.189 641.098 215.989 641.455C215.792 641.811 215.693 642.242 215.693 642.75ZM229.169 651.273C228.942 651.273 228.739 651.254 228.561 651.216C228.383 651.182 228.26 651.148 228.192 651.114L228.533 649.932C228.858 650.015 229.146 650.045 229.396 650.023C229.646 650 229.868 649.888 230.061 649.688C230.258 649.491 230.438 649.17 230.601 648.727L230.851 648.045L227.624 639.273H229.078L231.487 646.227H231.578L233.987 639.273H235.442L231.737 649.273C231.571 649.723 231.364 650.097 231.118 650.392C230.872 650.691 230.586 650.913 230.26 651.057C229.938 651.201 229.574 651.273 229.169 651.273ZM240.445 648.182C239.657 648.182 238.965 647.994 238.371 647.619C237.78 647.244 237.318 646.72 236.984 646.045C236.655 645.371 236.49 644.583 236.49 643.682C236.49 642.773 236.655 641.979 236.984 641.301C237.318 640.623 237.78 640.097 238.371 639.722C238.965 639.347 239.657 639.159 240.445 639.159C241.232 639.159 241.922 639.347 242.513 639.722C243.107 640.097 243.57 640.623 243.899 641.301C244.232 641.979 244.399 642.773 244.399 643.682C244.399 644.583 244.232 645.371 243.899 646.045C243.57 646.72 243.107 647.244 242.513 647.619C241.922 647.994 241.232 648.182 240.445 648.182ZM240.445 646.977C241.043 646.977 241.536 646.824 241.922 646.517C242.308 646.21 242.594 645.807 242.78 645.307C242.965 644.807 243.058 644.265 243.058 643.682C243.058 643.098 242.965 642.555 242.78 642.051C242.594 641.547 242.308 641.14 241.922 640.83C241.536 640.519 241.043 640.364 240.445 640.364C239.846 640.364 239.354 640.519 238.967 640.83C238.581 641.14 238.295 641.547 238.109 642.051C237.924 642.555 237.831 643.098 237.831 643.682C237.831 644.265 237.924 644.807 238.109 645.307C238.295 645.807 238.581 646.21 238.967 646.517C239.354 646.824 239.846 646.977 240.445 646.977ZM251.946 644.432V639.273H253.287V648H251.946V646.523H251.855C251.651 646.966 251.332 647.343 250.901 647.653C250.469 647.96 249.923 648.114 249.264 648.114C248.719 648.114 248.234 647.994 247.81 647.756C247.385 647.513 247.052 647.15 246.81 646.665C246.567 646.176 246.446 645.561 246.446 644.818V639.273H247.787V644.727C247.787 645.364 247.965 645.871 248.321 646.25C248.681 646.629 249.139 646.818 249.696 646.818C250.029 646.818 250.368 646.733 250.713 646.562C251.062 646.392 251.353 646.131 251.588 645.778C251.827 645.426 251.946 644.977 251.946 644.432Z" fill="white"/>
<path d="M27.2557 590.364V602H25.1477V590.364H27.2557ZM31.5043 596.886V602H29.4474V593.273H31.4134V594.756H31.5156C31.7164 594.267 32.0365 593.879 32.4759 593.591C32.919 593.303 33.4664 593.159 34.1179 593.159C34.7202 593.159 35.2448 593.288 35.6918 593.545C36.1425 593.803 36.491 594.176 36.7372 594.665C36.9872 595.153 37.1103 595.746 37.1065 596.443V602H35.0497V596.761C35.0497 596.178 34.8982 595.722 34.5952 595.392C34.2959 595.062 33.8812 594.898 33.3509 594.898C32.991 594.898 32.6709 594.977 32.3906 595.136C32.1141 595.292 31.8963 595.517 31.7372 595.812C31.5819 596.108 31.5043 596.466 31.5043 596.886ZM47.1832 590.205C47.7401 590.208 48.2817 590.307 48.8082 590.5C49.3385 590.689 49.8158 591 50.2401 591.432C50.6643 591.86 51.0014 592.434 51.2514 593.153C51.5014 593.873 51.6264 594.763 51.6264 595.824C51.6302 596.824 51.5241 597.718 51.3082 598.506C51.0961 599.29 50.7912 599.953 50.3935 600.494C49.9957 601.036 49.5166 601.449 48.956 601.733C48.3954 602.017 47.7647 602.159 47.0639 602.159C46.3291 602.159 45.6776 602.015 45.1094 601.727C44.545 601.439 44.0885 601.045 43.7401 600.545C43.3916 600.045 43.1776 599.473 43.098 598.83H45.1719C45.2779 599.292 45.4938 599.659 45.8196 599.932C46.1491 600.201 46.5639 600.335 47.0639 600.335C47.8707 600.335 48.492 599.985 48.9276 599.284C49.3632 598.583 49.581 597.61 49.581 596.364H49.5014C49.3158 596.697 49.0753 596.985 48.7798 597.227C48.4844 597.466 48.1491 597.65 47.7741 597.778C47.4029 597.907 47.009 597.972 46.5923 597.972C45.9105 597.972 45.2969 597.809 44.7514 597.483C44.2098 597.157 43.7798 596.71 43.4616 596.142C43.1473 595.574 42.9882 594.924 42.9844 594.193C42.9844 593.436 43.1586 592.756 43.5071 592.153C43.8594 591.547 44.3499 591.07 44.9787 590.722C45.6075 590.369 46.3423 590.197 47.1832 590.205ZM47.1889 591.909C46.7798 591.909 46.4105 592.009 46.081 592.21C45.7552 592.407 45.4976 592.676 45.3082 593.017C45.1226 593.354 45.0298 593.731 45.0298 594.148C45.0336 594.561 45.1264 594.936 45.3082 595.273C45.4938 595.61 45.7457 595.877 46.0639 596.074C46.3859 596.271 46.7533 596.369 47.1662 596.369C47.473 596.369 47.759 596.311 48.0241 596.193C48.2893 596.076 48.5204 595.913 48.7173 595.705C48.9181 595.492 49.0734 595.252 49.1832 594.983C49.2969 594.714 49.3518 594.43 49.348 594.131C49.348 593.733 49.2533 593.366 49.0639 593.028C48.8783 592.691 48.6226 592.42 48.2969 592.216C47.9749 592.011 47.6056 591.909 47.1889 591.909ZM57.8196 602.222C56.884 602.222 56.081 601.985 55.4105 601.511C54.7438 601.034 54.2306 600.347 53.8707 599.449C53.5147 598.547 53.3366 597.462 53.3366 596.193C53.3404 594.924 53.5204 593.845 53.8764 592.955C54.2363 592.061 54.7495 591.379 55.4162 590.909C56.0866 590.439 56.8878 590.205 57.8196 590.205C58.7514 590.205 59.5526 590.439 60.223 590.909C60.8935 591.379 61.4067 592.061 61.7628 592.955C62.1226 593.848 62.3026 594.928 62.3026 596.193C62.3026 597.466 62.1226 598.553 61.7628 599.455C61.4067 600.352 60.8935 601.038 60.223 601.511C59.5563 601.985 58.7552 602.222 57.8196 602.222ZM57.8196 600.443C58.5469 600.443 59.1207 600.085 59.5412 599.369C59.9654 598.65 60.1776 597.591 60.1776 596.193C60.1776 595.269 60.081 594.492 59.8878 593.864C59.6946 593.235 59.4219 592.761 59.0696 592.443C58.7173 592.121 58.3007 591.96 57.8196 591.96C57.0961 591.96 56.5241 592.32 56.1037 593.04C55.6832 593.756 55.4711 594.807 55.4673 596.193C55.4635 597.121 55.5563 597.902 55.7457 598.534C55.9389 599.167 56.2116 599.644 56.5639 599.966C56.9162 600.284 57.3348 600.443 57.8196 600.443ZM31.9545 614.58L30.0795 614.784C30.0265 614.595 29.9337 614.417 29.8011 614.25C29.6723 614.083 29.4981 613.949 29.2784 613.847C29.0587 613.744 28.7898 613.693 28.4716 613.693C28.0436 613.693 27.6837 613.786 27.392 613.972C27.1042 614.157 26.9621 614.398 26.9659 614.693C26.9621 614.947 27.0549 615.153 27.2443 615.312C27.4375 615.472 27.7557 615.602 28.1989 615.705L29.6875 616.023C30.5133 616.201 31.1269 616.483 31.5284 616.869C31.9337 617.256 32.1383 617.761 32.142 618.386C32.1383 618.936 31.9773 619.42 31.6591 619.841C31.3447 620.258 30.9072 620.583 30.3466 620.818C29.786 621.053 29.142 621.17 28.4148 621.17C27.3466 621.17 26.4867 620.947 25.8352 620.5C25.1837 620.049 24.7955 619.422 24.6705 618.619L26.6761 618.426C26.767 618.82 26.9602 619.117 27.2557 619.318C27.5511 619.519 27.9356 619.619 28.4091 619.619C28.8977 619.619 29.2898 619.519 29.5852 619.318C29.8845 619.117 30.0341 618.869 30.0341 618.574C30.0341 618.324 29.9375 618.117 29.7443 617.955C29.5549 617.792 29.2595 617.667 28.858 617.58L27.3693 617.267C26.5322 617.093 25.9129 616.799 25.5114 616.386C25.1098 615.97 24.911 615.443 24.9148 614.807C24.911 614.269 25.0568 613.803 25.3523 613.409C25.6515 613.011 26.0663 612.705 26.5966 612.489C27.1307 612.269 27.7462 612.159 28.4432 612.159C29.4659 612.159 30.2708 612.377 30.858 612.812C31.4489 613.248 31.8144 613.837 31.9545 614.58ZM37.7017 621.17C36.8267 621.17 36.071 620.989 35.4347 620.625C34.8021 620.258 34.3153 619.739 33.9744 619.068C33.6335 618.394 33.4631 617.6 33.4631 616.688C33.4631 615.79 33.6335 615.002 33.9744 614.324C34.3191 613.642 34.8002 613.112 35.4176 612.733C36.035 612.35 36.7604 612.159 37.5938 612.159C38.1316 612.159 38.6392 612.246 39.1165 612.42C39.5975 612.591 40.0218 612.856 40.3892 613.216C40.7604 613.576 41.0521 614.034 41.2642 614.591C41.4763 615.144 41.5824 615.803 41.5824 616.568V617.199H34.429V615.812H39.6108C39.607 615.419 39.5218 615.068 39.3551 614.761C39.1884 614.451 38.9555 614.206 38.6562 614.028C38.3608 613.85 38.0161 613.761 37.6222 613.761C37.2017 613.761 36.8324 613.864 36.5142 614.068C36.196 614.269 35.9479 614.534 35.7699 614.864C35.5956 615.189 35.5066 615.547 35.5028 615.938V617.148C35.5028 617.655 35.5956 618.091 35.7812 618.455C35.9669 618.814 36.2263 619.091 36.5597 619.284C36.893 619.473 37.2831 619.568 37.7301 619.568C38.0294 619.568 38.3002 619.527 38.5426 619.443C38.785 619.356 38.9953 619.229 39.1733 619.062C39.3513 618.896 39.4858 618.689 39.5767 618.443L41.4972 618.659C41.3759 619.167 41.1449 619.61 40.804 619.989C40.4669 620.364 40.035 620.655 39.5085 620.864C38.982 621.068 38.3797 621.17 37.7017 621.17ZM47.1293 621.17C46.258 621.17 45.5099 620.979 44.8849 620.597C44.2637 620.214 43.7846 619.686 43.4474 619.011C43.1141 618.333 42.9474 617.553 42.9474 616.67C42.9474 615.784 43.1179 615.002 43.4588 614.324C43.7997 613.642 44.2808 613.112 44.902 612.733C45.527 612.35 46.2656 612.159 47.1179 612.159C47.8262 612.159 48.4531 612.29 48.9986 612.551C49.5478 612.809 49.9853 613.174 50.3111 613.648C50.6368 614.117 50.8224 614.667 50.8679 615.295H48.902C48.8224 614.875 48.633 614.525 48.3338 614.244C48.0384 613.96 47.6425 613.818 47.1463 613.818C46.7259 613.818 46.3565 613.932 46.0384 614.159C45.7202 614.383 45.4721 614.705 45.294 615.125C45.1198 615.545 45.0327 616.049 45.0327 616.636C45.0327 617.231 45.1198 617.742 45.294 618.17C45.4683 618.595 45.7126 618.922 46.027 619.153C46.3452 619.381 46.7183 619.494 47.1463 619.494C47.4493 619.494 47.7202 619.437 47.9588 619.324C48.2012 619.206 48.4039 619.038 48.5668 618.818C48.7296 618.598 48.8414 618.331 48.902 618.017H50.8679C50.8187 618.634 50.6368 619.182 50.3224 619.659C50.008 620.133 49.58 620.504 49.0384 620.773C48.4967 621.038 47.8603 621.17 47.1293 621.17ZM56.3636 621.17C55.5114 621.17 54.7727 620.983 54.1477 620.608C53.5227 620.233 53.0379 619.708 52.6932 619.034C52.3523 618.36 52.1818 617.572 52.1818 616.67C52.1818 615.769 52.3523 614.979 52.6932 614.301C53.0379 613.623 53.5227 613.097 54.1477 612.722C54.7727 612.347 55.5114 612.159 56.3636 612.159C57.2159 612.159 57.9545 612.347 58.5795 612.722C59.2045 613.097 59.6875 613.623 60.0284 614.301C60.3731 614.979 60.5455 615.769 60.5455 616.67C60.5455 617.572 60.3731 618.36 60.0284 619.034C59.6875 619.708 59.2045 620.233 58.5795 620.608C57.9545 620.983 57.2159 621.17 56.3636 621.17ZM56.375 619.523C56.8371 619.523 57.2235 619.396 57.5341 619.142C57.8447 618.884 58.0758 618.54 58.2273 618.108C58.3826 617.676 58.4602 617.195 58.4602 616.665C58.4602 616.131 58.3826 615.648 58.2273 615.216C58.0758 614.78 57.8447 614.434 57.5341 614.176C57.2235 613.919 56.8371 613.79 56.375 613.79C55.9015 613.79 55.5076 613.919 55.1932 614.176C54.8826 614.434 54.6496 614.78 54.4943 615.216C54.3428 615.648 54.267 616.131 54.267 616.665C54.267 617.195 54.3428 617.676 54.4943 618.108C54.6496 618.54 54.8826 618.884 55.1932 619.142C55.5076 619.396 55.9015 619.523 56.375 619.523ZM64.348 615.886V621H62.2912V612.273H64.2571V613.756H64.3594C64.5601 613.267 64.8802 612.879 65.3196 612.591C65.7628 612.303 66.3101 612.159 66.9616 612.159C67.5639 612.159 68.0885 612.288 68.5355 612.545C68.9863 612.803 69.3348 613.176 69.581 613.665C69.831 614.153 69.9541 614.746 69.9503 615.443V621H67.8935V615.761C67.8935 615.178 67.742 614.722 67.4389 614.392C67.1397 614.062 66.7249 613.898 66.1946 613.898C65.8348 613.898 65.5147 613.977 65.2344 614.136C64.9579 614.292 64.7401 614.517 64.581 614.812C64.4257 615.108 64.348 615.466 64.348 615.886ZM75.2798 621.153C74.5942 621.153 73.9806 620.977 73.4389 620.625C72.8973 620.273 72.4692 619.761 72.1548 619.091C71.8404 618.42 71.6832 617.606 71.6832 616.648C71.6832 615.678 71.8423 614.86 72.1605 614.193C72.4825 613.523 72.9162 613.017 73.4616 612.676C74.0071 612.331 74.6151 612.159 75.2855 612.159C75.7969 612.159 76.2173 612.246 76.5469 612.42C76.8764 612.591 77.1378 612.797 77.331 613.04C77.5241 613.278 77.6738 613.504 77.7798 613.716H77.8651V609.364H79.9276V621H77.9048V619.625H77.7798C77.6738 619.837 77.5204 620.062 77.3196 620.301C77.1188 620.536 76.8537 620.737 76.5241 620.903C76.1946 621.07 75.7798 621.153 75.2798 621.153ZM75.8537 619.466C76.2893 619.466 76.6605 619.348 76.9673 619.114C77.2741 618.875 77.5071 618.544 77.6662 618.119C77.8253 617.695 77.9048 617.201 77.9048 616.636C77.9048 616.072 77.8253 615.581 77.6662 615.165C77.5109 614.748 77.2798 614.424 76.973 614.193C76.67 613.962 76.2969 613.847 75.8537 613.847C75.3954 613.847 75.0128 613.966 74.706 614.205C74.3991 614.443 74.1681 614.773 74.0128 615.193C73.8575 615.614 73.7798 616.095 73.7798 616.636C73.7798 617.182 73.8575 617.669 74.0128 618.097C74.1719 618.521 74.4048 618.856 74.7116 619.102C75.0223 619.345 75.4029 619.466 75.8537 619.466ZM89.017 614.58L87.142 614.784C87.089 614.595 86.9962 614.417 86.8636 614.25C86.7348 614.083 86.5606 613.949 86.3409 613.847C86.1212 613.744 85.8523 613.693 85.5341 613.693C85.1061 613.693 84.7462 613.786 84.4545 613.972C84.1667 614.157 84.0246 614.398 84.0284 614.693C84.0246 614.947 84.1174 615.153 84.3068 615.312C84.5 615.472 84.8182 615.602 85.2614 615.705L86.75 616.023C87.5758 616.201 88.1894 616.483 88.5909 616.869C88.9962 617.256 89.2008 617.761 89.2045 618.386C89.2008 618.936 89.0398 619.42 88.7216 619.841C88.4072 620.258 87.9697 620.583 87.4091 620.818C86.8485 621.053 86.2045 621.17 85.4773 621.17C84.4091 621.17 83.5492 620.947 82.8977 620.5C82.2462 620.049 81.858 619.422 81.733 618.619L83.7386 618.426C83.8295 618.82 84.0227 619.117 84.3182 619.318C84.6136 619.519 84.9981 619.619 85.4716 619.619C85.9602 619.619 86.3523 619.519 86.6477 619.318C86.947 619.117 87.0966 618.869 87.0966 618.574C87.0966 618.324 87 618.117 86.8068 617.955C86.6174 617.792 86.322 617.667 85.9205 617.58L84.4318 617.267C83.5947 617.093 82.9754 616.799 82.5739 616.386C82.1723 615.97 81.9735 615.443 81.9773 614.807C81.9735 614.269 82.1193 613.803 82.4148 613.409C82.714 613.011 83.1288 612.705 83.6591 612.489C84.1932 612.269 84.8087 612.159 85.5057 612.159C86.5284 612.159 87.3333 612.377 87.9205 612.812C88.5114 613.248 88.8769 613.837 89.017 614.58Z" fill="#F2A938"/>
<rect x="24.5" y="668.5" width="326" height="46.9571" rx="23.4786" stroke="url(#paint2_linear_147_11643)"/>
<path d="M149.967 690.058C149.872 689.751 149.741 689.477 149.575 689.234C149.412 688.988 149.215 688.778 148.984 688.604C148.756 688.429 148.495 688.299 148.2 688.211C147.904 688.121 147.582 688.075 147.234 688.075C146.609 688.075 146.052 688.232 145.563 688.547C145.075 688.861 144.69 689.323 144.41 689.933C144.133 690.539 143.995 691.278 143.995 692.149C143.995 693.028 144.133 693.772 144.41 694.382C144.686 694.992 145.071 695.456 145.563 695.774C146.056 696.088 146.628 696.246 147.279 696.246C147.87 696.246 148.381 696.132 148.813 695.905C149.249 695.677 149.584 695.355 149.819 694.939C150.054 694.518 150.171 694.026 150.171 693.461L150.648 693.535H147.489V691.888H152.211V693.285C152.211 694.282 151.999 695.143 151.575 695.871C151.15 696.598 150.567 697.158 149.825 697.552C149.082 697.943 148.23 698.138 147.268 698.138C146.196 698.138 145.254 697.897 144.444 697.416C143.637 696.931 143.006 696.244 142.552 695.354C142.101 694.46 141.876 693.399 141.876 692.172C141.876 691.232 142.008 690.393 142.273 689.655C142.542 688.916 142.917 688.289 143.398 687.774C143.879 687.255 144.444 686.861 145.092 686.592C145.739 686.319 146.444 686.183 147.205 686.183C147.849 686.183 148.45 686.278 149.006 686.467C149.563 686.653 150.058 686.918 150.489 687.263C150.925 687.607 151.283 688.016 151.563 688.49C151.844 688.963 152.027 689.486 152.114 690.058H149.967ZM158.022 698.149C157.147 698.149 156.391 697.967 155.755 697.604C155.122 697.236 154.636 696.717 154.295 696.047C153.954 695.372 153.783 694.579 153.783 693.666C153.783 692.768 153.954 691.98 154.295 691.302C154.639 690.621 155.121 690.09 155.738 689.711C156.355 689.329 157.081 689.138 157.914 689.138C158.452 689.138 158.96 689.225 159.437 689.399C159.918 689.569 160.342 689.835 160.71 690.194C161.081 690.554 161.372 691.013 161.585 691.569C161.797 692.122 161.903 692.782 161.903 693.547V694.177H154.749V692.791H159.931C159.927 692.397 159.842 692.047 159.675 691.74C159.509 691.429 159.276 691.185 158.977 691.007C158.681 690.829 158.336 690.74 157.942 690.74C157.522 690.74 157.153 690.842 156.835 691.047C156.516 691.247 156.268 691.513 156.09 691.842C155.916 692.168 155.827 692.526 155.823 692.916V694.126C155.823 694.634 155.916 695.069 156.102 695.433C156.287 695.793 156.547 696.069 156.88 696.263C157.213 696.452 157.603 696.547 158.05 696.547C158.35 696.547 158.621 696.505 158.863 696.422C159.105 696.335 159.316 696.208 159.494 696.041C159.672 695.874 159.806 695.668 159.897 695.422L161.817 695.638C161.696 696.145 161.465 696.588 161.124 696.967C160.787 697.342 160.355 697.634 159.829 697.842C159.302 698.047 158.7 698.149 158.022 698.149ZM168.001 689.251V690.842H162.984V689.251H168.001ZM164.222 687.16H166.279V695.354C166.279 695.63 166.321 695.842 166.404 695.99C166.491 696.134 166.605 696.232 166.745 696.285C166.885 696.338 167.04 696.365 167.211 696.365C167.34 696.365 167.457 696.355 167.563 696.336C167.673 696.318 167.756 696.3 167.813 696.285L168.16 697.893C168.05 697.931 167.893 697.973 167.688 698.018C167.487 698.064 167.241 698.09 166.95 698.098C166.434 698.113 165.97 698.035 165.558 697.865C165.145 697.691 164.817 697.422 164.575 697.058C164.336 696.694 164.219 696.24 164.222 695.694V687.16ZM180.587 691.558L178.712 691.763C178.659 691.573 178.567 691.395 178.434 691.229C178.305 691.062 178.131 690.927 177.911 690.825C177.692 690.723 177.423 690.672 177.104 690.672C176.676 690.672 176.317 690.765 176.025 690.95C175.737 691.136 175.595 691.376 175.599 691.672C175.595 691.925 175.688 692.132 175.877 692.291C176.07 692.45 176.388 692.581 176.832 692.683L178.32 693.001C179.146 693.179 179.76 693.461 180.161 693.848C180.567 694.234 180.771 694.74 180.775 695.365C180.771 695.914 180.61 696.399 180.292 696.819C179.978 697.236 179.54 697.562 178.979 697.797C178.419 698.032 177.775 698.149 177.048 698.149C175.979 698.149 175.12 697.925 174.468 697.479C173.817 697.028 173.428 696.401 173.303 695.598L175.309 695.405C175.4 695.799 175.593 696.096 175.888 696.297C176.184 696.497 176.568 696.598 177.042 696.598C177.531 696.598 177.923 696.497 178.218 696.297C178.517 696.096 178.667 695.848 178.667 695.552C178.667 695.302 178.57 695.096 178.377 694.933C178.188 694.77 177.892 694.645 177.491 694.558L176.002 694.246C175.165 694.071 174.546 693.778 174.144 693.365C173.743 692.948 173.544 692.422 173.548 691.785C173.544 691.247 173.69 690.782 173.985 690.388C174.284 689.99 174.699 689.683 175.229 689.467C175.763 689.247 176.379 689.138 177.076 689.138C178.099 689.138 178.904 689.355 179.491 689.791C180.082 690.227 180.447 690.816 180.587 691.558ZM186.829 689.251V690.842H181.812V689.251H186.829ZM183.05 687.16H185.107V695.354C185.107 695.63 185.149 695.842 185.232 695.99C185.319 696.134 185.433 696.232 185.573 696.285C185.713 696.338 185.869 696.365 186.039 696.365C186.168 696.365 186.285 696.355 186.391 696.336C186.501 696.318 186.585 696.3 186.641 696.285L186.988 697.893C186.878 697.931 186.721 697.973 186.516 698.018C186.316 698.064 186.069 698.09 185.778 698.098C185.263 698.113 184.799 698.035 184.386 697.865C183.973 697.691 183.645 697.422 183.403 697.058C183.164 696.694 183.047 696.24 183.05 695.694V687.16ZM191.06 698.155C190.507 698.155 190.009 698.056 189.566 697.859C189.127 697.658 188.778 697.363 188.521 696.973C188.267 696.583 188.14 696.102 188.14 695.53C188.14 695.037 188.231 694.63 188.413 694.308C188.594 693.986 188.843 693.729 189.157 693.535C189.471 693.342 189.826 693.196 190.219 693.098C190.617 692.996 191.028 692.922 191.452 692.876C191.964 692.823 192.379 692.776 192.697 692.734C193.015 692.689 193.246 692.621 193.39 692.53C193.538 692.435 193.612 692.289 193.612 692.092V692.058C193.612 691.63 193.485 691.299 193.231 691.064C192.977 690.829 192.612 690.711 192.134 690.711C191.63 690.711 191.231 690.821 190.935 691.041C190.644 691.261 190.447 691.52 190.344 691.819L188.424 691.547C188.576 691.016 188.826 690.573 189.174 690.217C189.522 689.857 189.949 689.588 190.452 689.41C190.956 689.229 191.513 689.138 192.123 689.138C192.543 689.138 192.962 689.187 193.379 689.285C193.795 689.384 194.176 689.547 194.521 689.774C194.865 689.997 195.142 690.302 195.35 690.689C195.562 691.075 195.668 691.558 195.668 692.138V697.979H193.691V696.78H193.623C193.498 697.022 193.322 697.249 193.094 697.461C192.871 697.67 192.589 697.838 192.248 697.967C191.911 698.092 191.515 698.155 191.06 698.155ZM191.594 696.643C192.007 696.643 192.365 696.562 192.668 696.399C192.971 696.232 193.204 696.013 193.367 695.74C193.534 695.467 193.617 695.17 193.617 694.848V693.819C193.553 693.872 193.443 693.922 193.288 693.967C193.136 694.013 192.966 694.052 192.776 694.086C192.587 694.121 192.399 694.151 192.214 694.177C192.028 694.204 191.867 694.227 191.731 694.246C191.424 694.287 191.149 694.355 190.907 694.45C190.665 694.545 190.473 694.677 190.333 694.848C190.193 695.015 190.123 695.23 190.123 695.496C190.123 695.874 190.261 696.16 190.538 696.354C190.814 696.547 191.166 696.643 191.594 696.643ZM197.737 697.979V689.251H199.731V690.706H199.822C199.981 690.202 200.254 689.814 200.64 689.541C201.03 689.265 201.475 689.126 201.975 689.126C202.089 689.126 202.216 689.132 202.356 689.143C202.5 689.151 202.619 689.164 202.714 689.183V691.075C202.627 691.045 202.488 691.018 202.299 690.996C202.113 690.969 201.933 690.956 201.759 690.956C201.384 690.956 201.047 691.037 200.748 691.2C200.452 691.359 200.219 691.581 200.049 691.865C199.879 692.149 199.793 692.477 199.793 692.848V697.979H197.737ZM208.907 689.251V690.842H203.89V689.251H208.907ZM205.129 687.16H207.185V695.354C207.185 695.63 207.227 695.842 207.31 695.99C207.397 696.134 207.511 696.232 207.651 696.285C207.791 696.338 207.947 696.365 208.117 696.365C208.246 696.365 208.363 696.355 208.469 696.336C208.579 696.318 208.663 696.3 208.719 696.285L209.066 697.893C208.956 697.931 208.799 697.973 208.594 698.018C208.394 698.064 208.147 698.09 207.856 698.098C207.341 698.113 206.877 698.035 206.464 697.865C206.051 697.691 205.723 697.422 205.481 697.058C205.242 696.694 205.125 696.24 205.129 695.694V687.16ZM214.397 698.149C213.522 698.149 212.766 697.967 212.13 697.604C211.497 697.236 211.011 696.717 210.67 696.047C210.329 695.372 210.158 694.579 210.158 693.666C210.158 692.768 210.329 691.98 210.67 691.302C211.014 690.621 211.496 690.09 212.113 689.711C212.73 689.329 213.456 689.138 214.289 689.138C214.827 689.138 215.335 689.225 215.812 689.399C216.293 689.569 216.717 689.835 217.085 690.194C217.456 690.554 217.747 691.013 217.96 691.569C218.172 692.122 218.278 692.782 218.278 693.547V694.177H211.124V692.791H216.306C216.302 692.397 216.217 692.047 216.05 691.74C215.884 691.429 215.651 691.185 215.352 691.007C215.056 690.829 214.711 690.74 214.317 690.74C213.897 690.74 213.528 690.842 213.21 691.047C212.891 691.247 212.643 691.513 212.465 691.842C212.291 692.168 212.202 692.526 212.198 692.916V694.126C212.198 694.634 212.291 695.069 212.477 695.433C212.662 695.793 212.922 696.069 213.255 696.263C213.588 696.452 213.978 696.547 214.425 696.547C214.725 696.547 214.996 696.505 215.238 696.422C215.48 696.335 215.691 696.208 215.869 696.041C216.047 695.874 216.181 695.668 216.272 695.422L218.192 695.638C218.071 696.145 217.84 696.588 217.499 696.967C217.162 697.342 216.73 697.634 216.204 697.842C215.677 698.047 215.075 698.149 214.397 698.149ZM223.256 698.132C222.571 698.132 221.957 697.956 221.415 697.604C220.874 697.251 220.446 696.74 220.131 696.069C219.817 695.399 219.66 694.585 219.66 693.626C219.66 692.657 219.819 691.838 220.137 691.172C220.459 690.501 220.893 689.996 221.438 689.655C221.984 689.31 222.592 689.138 223.262 689.138C223.773 689.138 224.194 689.225 224.523 689.399C224.853 689.569 225.114 689.776 225.308 690.018C225.501 690.257 225.65 690.482 225.756 690.694H225.842V686.342H227.904V697.979H225.881V696.604H225.756C225.65 696.816 225.497 697.041 225.296 697.28C225.095 697.515 224.83 697.715 224.501 697.882C224.171 698.049 223.756 698.132 223.256 698.132ZM223.83 696.444C224.266 696.444 224.637 696.327 224.944 696.092C225.251 695.854 225.484 695.522 225.643 695.098C225.802 694.674 225.881 694.179 225.881 693.615C225.881 693.05 225.802 692.56 225.643 692.143C225.487 691.727 225.256 691.403 224.95 691.172C224.647 690.941 224.273 690.825 223.83 690.825C223.372 690.825 222.989 690.944 222.683 691.183C222.376 691.422 222.145 691.751 221.989 692.172C221.834 692.592 221.756 693.073 221.756 693.615C221.756 694.16 221.834 694.647 221.989 695.075C222.148 695.499 222.381 695.835 222.688 696.081C222.999 696.323 223.379 696.444 223.83 696.444ZM232.613 686.342L232.425 694.558H230.596L230.414 686.342H232.613ZM231.511 698.104C231.166 698.104 230.871 697.982 230.624 697.74C230.382 697.497 230.261 697.202 230.261 696.854C230.261 696.513 230.382 696.221 230.624 695.979C230.871 695.736 231.166 695.615 231.511 695.615C231.848 695.615 232.139 695.736 232.386 695.979C232.636 696.221 232.761 696.513 232.761 696.854C232.761 697.085 232.702 697.295 232.585 697.484C232.471 697.674 232.319 697.825 232.13 697.939C231.944 698.049 231.738 698.104 231.511 698.104Z" fill="white"/>
<rect x="24" y="732" width="327" height="48" rx="24" fill="black" fill-opacity="0.2"/>
<path d="M100.077 762V750.364H102.185V755.29H107.577V750.364H109.691V762H107.577V757.057H102.185V762H100.077ZM115.7 762.17C114.847 762.17 114.109 761.983 113.484 761.608C112.859 761.233 112.374 760.708 112.029 760.034C111.688 759.36 111.518 758.572 111.518 757.67C111.518 756.769 111.688 755.979 112.029 755.301C112.374 754.623 112.859 754.097 113.484 753.722C114.109 753.347 114.847 753.159 115.7 753.159C116.552 753.159 117.29 753.347 117.915 753.722C118.54 754.097 119.023 754.623 119.364 755.301C119.709 755.979 119.881 756.769 119.881 757.67C119.881 758.572 119.709 759.36 119.364 760.034C119.023 760.708 118.54 761.233 117.915 761.608C117.29 761.983 116.552 762.17 115.7 762.17ZM115.711 760.523C116.173 760.523 116.559 760.396 116.87 760.142C117.181 759.884 117.412 759.54 117.563 759.108C117.719 758.676 117.796 758.195 117.796 757.665C117.796 757.131 117.719 756.648 117.563 756.216C117.412 755.78 117.181 755.434 116.87 755.176C116.559 754.919 116.173 754.79 115.711 754.79C115.237 754.79 114.844 754.919 114.529 755.176C114.219 755.434 113.986 755.78 113.83 756.216C113.679 756.648 113.603 757.131 113.603 757.665C113.603 758.195 113.679 758.676 113.83 759.108C113.986 759.54 114.219 759.884 114.529 760.142C114.844 760.396 115.237 760.523 115.711 760.523ZM123.178 762L120.712 753.273H122.809L124.343 759.409H124.423L125.991 753.273H128.065L129.633 759.375H129.718L131.229 753.273H133.332L130.86 762H128.718L127.082 756.102H126.962L125.326 762H123.178ZM141.975 762.153C141.29 762.153 140.676 761.977 140.134 761.625C139.593 761.273 139.165 760.761 138.85 760.091C138.536 759.42 138.379 758.606 138.379 757.648C138.379 756.678 138.538 755.86 138.856 755.193C139.178 754.523 139.612 754.017 140.157 753.676C140.702 753.331 141.31 753.159 141.981 753.159C142.492 753.159 142.913 753.246 143.242 753.42C143.572 753.591 143.833 753.797 144.026 754.04C144.219 754.278 144.369 754.504 144.475 754.716H144.56V750.364H146.623V762H144.6V760.625H144.475C144.369 760.837 144.216 761.062 144.015 761.301C143.814 761.536 143.549 761.737 143.219 761.903C142.89 762.07 142.475 762.153 141.975 762.153ZM142.549 760.466C142.985 760.466 143.356 760.348 143.663 760.114C143.969 759.875 144.202 759.544 144.362 759.119C144.521 758.695 144.6 758.201 144.6 757.636C144.6 757.072 144.521 756.581 144.362 756.165C144.206 755.748 143.975 755.424 143.668 755.193C143.365 754.962 142.992 754.847 142.549 754.847C142.091 754.847 141.708 754.966 141.401 755.205C141.094 755.443 140.863 755.773 140.708 756.193C140.553 756.614 140.475 757.095 140.475 757.636C140.475 758.182 140.553 758.669 140.708 759.097C140.867 759.521 141.1 759.856 141.407 760.102C141.718 760.345 142.098 760.466 142.549 760.466ZM152.621 762.17C151.769 762.17 151.031 761.983 150.406 761.608C149.781 761.233 149.296 760.708 148.951 760.034C148.61 759.36 148.44 758.572 148.44 757.67C148.44 756.769 148.61 755.979 148.951 755.301C149.296 754.623 149.781 754.097 150.406 753.722C151.031 753.347 151.769 753.159 152.621 753.159C153.474 753.159 154.212 753.347 154.837 753.722C155.462 754.097 155.945 754.623 156.286 755.301C156.631 755.979 156.803 756.769 156.803 757.67C156.803 758.572 156.631 759.36 156.286 760.034C155.945 760.708 155.462 761.233 154.837 761.608C154.212 761.983 153.474 762.17 152.621 762.17ZM152.633 760.523C153.095 760.523 153.481 760.396 153.792 760.142C154.103 759.884 154.334 759.54 154.485 759.108C154.64 758.676 154.718 758.195 154.718 757.665C154.718 757.131 154.64 756.648 154.485 756.216C154.334 755.78 154.103 755.434 153.792 755.176C153.481 754.919 153.095 754.79 152.633 754.79C152.159 754.79 151.765 754.919 151.451 755.176C151.14 755.434 150.907 755.78 150.752 756.216C150.601 756.648 150.525 757.131 150.525 757.665C150.525 758.195 150.601 758.676 150.752 759.108C150.907 759.54 151.14 759.884 151.451 760.142C151.765 760.396 152.159 760.523 152.633 760.523ZM162.413 762.17C161.538 762.17 160.782 761.989 160.146 761.625C159.513 761.258 159.026 760.739 158.685 760.068C158.344 759.394 158.174 758.6 158.174 757.688C158.174 756.79 158.344 756.002 158.685 755.324C159.03 754.642 159.511 754.112 160.129 753.733C160.746 753.35 161.471 753.159 162.305 753.159C162.843 753.159 163.35 753.246 163.827 753.42C164.308 753.591 164.733 753.856 165.1 754.216C165.471 754.576 165.763 755.034 165.975 755.591C166.187 756.144 166.293 756.803 166.293 757.568V758.199H159.14V756.812H164.322C164.318 756.419 164.233 756.068 164.066 755.761C163.899 755.451 163.666 755.206 163.367 755.028C163.072 754.85 162.727 754.761 162.333 754.761C161.913 754.761 161.543 754.864 161.225 755.068C160.907 755.269 160.659 755.534 160.481 755.864C160.307 756.189 160.218 756.547 160.214 756.938V758.148C160.214 758.655 160.307 759.091 160.492 759.455C160.678 759.814 160.937 760.091 161.271 760.284C161.604 760.473 161.994 760.568 162.441 760.568C162.74 760.568 163.011 760.527 163.254 760.443C163.496 760.356 163.706 760.229 163.884 760.062C164.062 759.896 164.197 759.689 164.288 759.443L166.208 759.659C166.087 760.167 165.856 760.61 165.515 760.989C165.178 761.364 164.746 761.655 164.219 761.864C163.693 762.068 163.091 762.17 162.413 762.17ZM174.931 755.58L173.056 755.784C173.003 755.595 172.91 755.417 172.778 755.25C172.649 755.083 172.475 754.949 172.255 754.847C172.035 754.744 171.766 754.693 171.448 754.693C171.02 754.693 170.66 754.786 170.369 754.972C170.081 755.157 169.939 755.398 169.942 755.693C169.939 755.947 170.031 756.153 170.221 756.312C170.414 756.472 170.732 756.602 171.175 756.705L172.664 757.023C173.49 757.201 174.103 757.483 174.505 757.869C174.91 758.256 175.115 758.761 175.119 759.386C175.115 759.936 174.954 760.42 174.636 760.841C174.321 761.258 173.884 761.583 173.323 761.818C172.763 762.053 172.119 762.17 171.391 762.17C170.323 762.17 169.463 761.947 168.812 761.5C168.16 761.049 167.772 760.422 167.647 759.619L169.653 759.426C169.744 759.82 169.937 760.117 170.232 760.318C170.528 760.519 170.912 760.619 171.386 760.619C171.874 760.619 172.266 760.519 172.562 760.318C172.861 760.117 173.011 759.869 173.011 759.574C173.011 759.324 172.914 759.117 172.721 758.955C172.531 758.792 172.236 758.667 171.835 758.58L170.346 758.267C169.509 758.093 168.889 757.799 168.488 757.386C168.086 756.97 167.888 756.443 167.891 755.807C167.888 755.269 168.033 754.803 168.329 754.409C168.628 754.011 169.043 753.705 169.573 753.489C170.107 753.269 170.723 753.159 171.42 753.159C172.442 753.159 173.247 753.377 173.835 753.812C174.425 754.248 174.791 754.837 174.931 755.58ZM185.141 753.273V754.864H180.124V753.273H185.141ZM181.363 751.182H183.42V759.375C183.42 759.652 183.461 759.864 183.545 760.011C183.632 760.155 183.746 760.254 183.886 760.307C184.026 760.36 184.181 760.386 184.352 760.386C184.48 760.386 184.598 760.377 184.704 760.358C184.814 760.339 184.897 760.322 184.954 760.307L185.3 761.915C185.191 761.953 185.033 761.994 184.829 762.04C184.628 762.085 184.382 762.112 184.09 762.119C183.575 762.134 183.111 762.057 182.698 761.886C182.285 761.712 181.958 761.443 181.715 761.08C181.477 760.716 181.359 760.261 181.363 759.716V751.182ZM189.106 756.886V762H187.049V750.364H189.06V754.756H189.163C189.367 754.263 189.683 753.875 190.112 753.591C190.543 753.303 191.093 753.159 191.759 753.159C192.365 753.159 192.894 753.286 193.344 753.54C193.795 753.794 194.144 754.165 194.39 754.653C194.64 755.142 194.765 755.739 194.765 756.443V762H192.708V756.761C192.708 756.174 192.557 755.718 192.254 755.392C191.954 755.062 191.534 754.898 190.992 754.898C190.629 754.898 190.303 754.977 190.015 755.136C189.731 755.292 189.507 755.517 189.344 755.812C189.185 756.108 189.106 756.466 189.106 756.886ZM200.725 762.17C199.85 762.17 199.094 761.989 198.458 761.625C197.826 761.258 197.339 760.739 196.998 760.068C196.657 759.394 196.487 758.6 196.487 757.688C196.487 756.79 196.657 756.002 196.998 755.324C197.343 754.642 197.824 754.112 198.441 753.733C199.058 753.35 199.784 753.159 200.617 753.159C201.155 753.159 201.663 753.246 202.14 753.42C202.621 753.591 203.045 753.856 203.413 754.216C203.784 754.576 204.076 755.034 204.288 755.591C204.5 756.144 204.606 756.803 204.606 757.568V758.199H197.452V756.812H202.634C202.63 756.419 202.545 756.068 202.379 755.761C202.212 755.451 201.979 755.206 201.68 755.028C201.384 754.85 201.04 754.761 200.646 754.761C200.225 754.761 199.856 754.864 199.538 755.068C199.219 755.269 198.971 755.534 198.793 755.864C198.619 756.189 198.53 756.547 198.526 756.938V758.148C198.526 758.655 198.619 759.091 198.805 759.455C198.99 759.814 199.25 760.091 199.583 760.284C199.916 760.473 200.307 760.568 200.754 760.568C201.053 760.568 201.324 760.527 201.566 760.443C201.808 760.356 202.019 760.229 202.197 760.062C202.375 759.896 202.509 759.689 202.6 759.443L204.521 759.659C204.399 760.167 204.168 760.61 203.827 760.989C203.49 761.364 203.058 761.655 202.532 761.864C202.005 762.068 201.403 762.17 200.725 762.17ZM211.9 762H209.65L213.746 750.364H216.349L220.451 762H218.201L215.093 752.75H215.002L211.9 762ZM211.974 757.438H218.11V759.131H211.974V757.438ZM221.955 762V753.273H224.012V762H221.955ZM222.989 752.034C222.664 752.034 222.383 751.926 222.148 751.71C221.914 751.491 221.796 751.227 221.796 750.92C221.796 750.61 221.914 750.347 222.148 750.131C222.383 749.911 222.664 749.801 222.989 749.801C223.319 749.801 223.599 749.911 223.83 750.131C224.065 750.347 224.183 750.61 224.183 750.92C224.183 751.227 224.065 751.491 223.83 751.71C223.599 751.926 223.319 752.034 222.989 752.034ZM231.897 762L229.431 753.273H231.528L233.062 759.409H233.141L234.71 753.273H236.783L238.352 759.375H238.437L239.948 753.273H242.05L239.579 762H237.437L235.8 756.102H235.681L234.045 762H231.897ZM247.043 762.17C246.191 762.17 245.452 761.983 244.827 761.608C244.202 761.233 243.718 760.708 243.373 760.034C243.032 759.36 242.862 758.572 242.862 757.67C242.862 756.769 243.032 755.979 243.373 755.301C243.718 754.623 244.202 754.097 244.827 753.722C245.452 753.347 246.191 753.159 247.043 753.159C247.896 753.159 248.634 753.347 249.259 753.722C249.884 754.097 250.367 754.623 250.708 755.301C251.053 755.979 251.225 756.769 251.225 757.67C251.225 758.572 251.053 759.36 250.708 760.034C250.367 760.708 249.884 761.233 249.259 761.608C248.634 761.983 247.896 762.17 247.043 762.17ZM247.055 760.523C247.517 760.523 247.903 760.396 248.214 760.142C248.524 759.884 248.755 759.54 248.907 759.108C249.062 758.676 249.14 758.195 249.14 757.665C249.14 757.131 249.062 756.648 248.907 756.216C248.755 755.78 248.524 755.434 248.214 755.176C247.903 754.919 247.517 754.79 247.055 754.79C246.581 754.79 246.187 754.919 245.873 755.176C245.562 755.434 245.329 755.78 245.174 756.216C245.022 756.648 244.947 757.131 244.947 757.665C244.947 758.195 245.022 758.676 245.174 759.108C245.329 759.54 245.562 759.884 245.873 760.142C246.187 760.396 246.581 760.523 247.055 760.523ZM252.971 762V753.273H254.965V754.727H255.056C255.215 754.223 255.488 753.835 255.874 753.562C256.264 753.286 256.71 753.148 257.21 753.148C257.323 753.148 257.45 753.153 257.59 753.165C257.734 753.172 257.853 753.186 257.948 753.205V755.097C257.861 755.066 257.723 755.04 257.533 755.017C257.348 754.991 257.168 754.977 256.994 754.977C256.619 754.977 256.281 755.059 255.982 755.222C255.687 755.381 255.454 755.602 255.283 755.886C255.113 756.17 255.028 756.498 255.028 756.869V762H252.971ZM261.19 759.261L261.184 756.778H261.513L264.65 753.273H267.053L263.195 757.568H262.769L261.19 759.261ZM259.315 762V750.364H261.371V762H259.315ZM264.792 762L261.951 758.028L263.337 756.58L267.252 762H264.792ZM270.39 758.58V758.432C270.394 757.746 270.458 757.201 270.583 756.795C270.712 756.39 270.894 756.064 271.129 755.818C271.363 755.568 271.649 755.339 271.987 755.131C272.218 754.987 272.424 754.83 272.606 754.659C272.791 754.485 272.937 754.292 273.043 754.08C273.149 753.864 273.202 753.623 273.202 753.358C273.202 753.059 273.132 752.799 272.992 752.58C272.852 752.36 272.663 752.189 272.424 752.068C272.189 751.947 271.926 751.886 271.634 751.886C271.365 751.886 271.11 751.945 270.867 752.062C270.629 752.176 270.43 752.35 270.271 752.585C270.115 752.816 270.028 753.11 270.009 753.466H267.987C268.005 752.746 268.18 752.144 268.509 751.659C268.843 751.174 269.282 750.811 269.827 750.568C270.377 750.326 270.983 750.205 271.646 750.205C272.369 750.205 273.005 750.331 273.555 750.585C274.108 750.839 274.538 751.201 274.844 751.67C275.155 752.136 275.31 752.689 275.31 753.33C275.31 753.761 275.24 754.148 275.1 754.489C274.964 754.83 274.769 755.133 274.515 755.398C274.261 755.663 273.96 755.9 273.612 756.108C273.305 756.297 273.053 756.494 272.856 756.699C272.663 756.903 272.519 757.144 272.424 757.42C272.333 757.693 272.286 758.03 272.282 758.432V758.58H270.39ZM271.379 762.125C271.038 762.125 270.744 762.004 270.498 761.761C270.252 761.519 270.129 761.223 270.129 760.875C270.129 760.534 270.252 760.242 270.498 760C270.744 759.758 271.038 759.636 271.379 759.636C271.716 759.636 272.007 759.758 272.254 760C272.504 760.242 272.629 760.534 272.629 760.875C272.629 761.106 272.57 761.316 272.452 761.506C272.339 761.695 272.187 761.847 271.998 761.96C271.812 762.07 271.606 762.125 271.379 762.125Z" fill="#717171"/>
</g>
<defs>
<filter id="filter0_n_147_11643" x="0" y="0" width="375" height="812" filterUnits="userSpaceOnUse" color-interpolation-filters="sRGB">
<feFlood flood-opacity="0" result="BackgroundImageFix"/>
<feBlend mode="normal" in="SourceGraphic" in2="BackgroundImageFix" result="shape"/>
<feTurbulence type="fractalNoise" baseFrequency="10 10" stitchTiles="stitch" numOctaves="3" result="noise" seed="3632" />
<feColorMatrix in="noise" type="luminanceToAlpha" result="alphaNoise" />
<feComponentTransfer in="alphaNoise" result="coloredNoise1">
<feFuncA type="discrete" tableValues="1 1 1 1 1 1 1 1 1 1 1 1 1 1 1 1 1 1 1 1 1 1 1 1 1 1 1 1 1 1 1 1 1 1 1 1 1 1 1 1 1 1 1 1 1 1 1 1 1 1 1 0 0 0 0 0 0 0 0 0 0 0 0 0 0 0 0 0 0 0 0 0 0 0 0 0 0 0 0 0 0 0 0 0 0 0 0 0 0 0 0 0 0 0 0 0 0 0 0 0 "/>
</feComponentTransfer>
<feComposite operator="in" in2="shape" in="coloredNoise1" result="noise1Clipped" />
<feFlood flood-color="rgba(129, 129, 129, 0.12)" result="color1Flood" />
<feComposite operator="in" in2="noise1Clipped" in="color1Flood" result="color1" />
<feMerge result="effect1_noise_147_11643">
<feMergeNode in="shape" />
<feMergeNode in="color1" />
</feMerge>
</filter>
<filter id="filter1_dddn_147_11643" x="61.3" y="159.081" width="112.643" height="62.5883" filterUnits="userSpaceOnUse" color-interpolation-filters="sRGB">
<feFlood flood-opacity="0" result="BackgroundImageFix"/>
<feColorMatrix in="SourceAlpha" type="matrix" values="0 0 0 0 0 0 0 0 0 0 0 0 0 0 0 0 0 0 127 0" result="hardAlpha"/>
<feOffset/>
<feGaussianBlur stdDeviation="0.414154"/>
<feColorMatrix type="matrix" values="0 0 0 0 0 0 0 0 0 0 0 0 0 0 0 0 0 0 0.04 0"/>
<feBlend mode="normal" in2="BackgroundImageFix" result="effect1_dropShadow_147_11643"/>
<feColorMatrix in="SourceAlpha" type="matrix" values="0 0 0 0 0 0 0 0 0 0 0 0 0 0 0 0 0 0 127 0" result="hardAlpha"/>
<feOffset dy="1.65662"/>
<feGaussianBlur stdDeviation="8.24167"/>
<feColorMatrix type="matrix" values="0 0 0 0 0.124496 0 0 0 0 0.497135 0 0 0 0 0.984431 0 0 0 0.6 0"/>
<feBlend mode="normal" in2="effect1_dropShadow_147_11643" result="effect2_dropShadow_147_11643"/>
<feColorMatrix in="SourceAlpha" type="matrix" values="0 0 0 0 0 0 0 0 0 0 0 0 0 0 0 0 0 0 127 0" result="hardAlpha"/>
<feOffset dy="-5.79816"/>
<feGaussianBlur stdDeviation="10.1054"/>
<feColorMatrix type="matrix" values="0 0 0 0 0.166667 0 0 0 0 0 0 0 0 0 1 0 0 0 0.58 0"/>
<feBlend mode="normal" in2="effect2_dropShadow_147_11643" result="effect3_dropShadow_147_11643"/>
<feBlend mode="normal" in="SourceGraphic" in2="BackgroundImageFix" result="shape"/>
<feTurbulence type="fractalNoise" baseFrequency="2.4145593643188477 2.4145593643188477" stitchTiles="stitch" numOctaves="3" result="noise" seed="7152" />
<feColorMatrix in="noise" type="luminanceToAlpha" result="alphaNoise" />
<feComponentTransfer in="alphaNoise" result="coloredNoise1">
<feFuncA type="discrete" tableValues="0 0 0 0 0 0 0 0 0 0 1 1 1 1 1 1 1 1 1 1 1 1 1 1 1 1 1 1 1 1 1 1 1 1 1 1 1 1 1 0 0 0 0 0 0 0 0 0 0 0 0 0 0 0 0 0 0 0 0 0 0 0 0 0 0 0 0 0 0 0 0 0 0 0 0 0 0 0 0 0 0 0 0 0 0 0 0 0 0 0 0 0 0 0 0 0 0 0 0 0 "/>
</feComponentTransfer>
<feComposite operator="in" in2="shape" in="coloredNoise1" result="noise1Clipped" />
<feComponentTransfer in="alphaNoise" result="coloredNoise2">
<feFuncA type="discrete" tableValues="0 0 0 0 0 0 0 0 0 0 0 0 0 0 0 0 0 0 0 0 0 0 0 0 0 0 0 0 0 0 0 0 0 0 0 0 0 0 0 0 0 0 0 0 0 0 0 0 0 0 0 0 0 0 0 0 0 0 0 0 0 1 1 1 1 1 1 1 1 1 1 1 1 1 1 1 1 1 1 1 1 1 1 1 1 1 1 1 1 1 0 0 0 0 0 0 0 0 0 0 "/>
</feComponentTransfer>
<feComposite operator="in" in2="shape" in="coloredNoise2" result="noise2Clipped" />
<feFlood flood-color="rgba(0, 0, 0, 0.25)" result="color1Flood" />
<feComposite operator="in" in2="noise1Clipped" in="color1Flood" result="color1" />
<feFlood flood-color="rgba(255, 255, 255, 0.25)" result="color2Flood" />
<feComposite operator="in" in2="noise2Clipped" in="color2Flood" result="color2" />
<feMerge result="effect4_noise_147_11643">
<feMergeNode in="shape" />
<feMergeNode in="color1" />
<feMergeNode in="color2" />
</feMerge>
<feBlend mode="normal" in="effect4_noise_147_11643" in2="effect3_dropShadow_147_11643" result="effect4_noise_147_11643"/>
</filter>
<filter id="filter2_dddn_147_11643" x="58.1397" y="192.238" width="258.29" height="103.391" filterUnits="userSpaceOnUse" color-interpolation-filters="sRGB">
<feFlood flood-opacity="0" result="BackgroundImageFix"/>
<feColorMatrix in="SourceAlpha" type="matrix" values="0 0 0 0 0 0 0 0 0 0 0 0 0 0 0 0 0 0 127 0" result="hardAlpha"/>
<feOffset/>
<feGaussianBlur stdDeviation="0.492113"/>
<feColorMatrix type="matrix" values="0 0 0 0 0 0 0 0 0 0 0 0 0 0 0 0 0 0 0.04 0"/>
<feBlend mode="normal" in2="BackgroundImageFix" result="effect1_dropShadow_147_11643"/>
<feColorMatrix in="SourceAlpha" type="matrix" values="0 0 0 0 0 0 0 0 0 0 0 0 0 0 0 0 0 0 127 0" result="hardAlpha"/>
<feOffset dy="1.96845"/>
<feGaussianBlur stdDeviation="9.79304"/>
<feColorMatrix type="matrix" values="0 0 0 0 0.124496 0 0 0 0 0.497135 0 0 0 0 0.984431 0 0 0 0.6 0"/>
<feBlend mode="normal" in2="effect1_dropShadow_147_11643" result="effect2_dropShadow_147_11643"/>
<feColorMatrix in="SourceAlpha" type="matrix" values="0 0 0 0 0 0 0 0 0 0 0 0 0 0 0 0 0 0 127 0" result="hardAlpha"/>
<feOffset dy="-6.88958"/>
<feGaussianBlur stdDeviation="12.0076"/>
<feColorMatrix type="matrix" values="0 0 0 0 0.166667 0 0 0 0 0 0 0 0 0 1 0 0 0 0.58 0"/>
<feBlend mode="normal" in2="effect2_dropShadow_147_11643" result="effect3_dropShadow_147_11643"/>
<feBlend mode="normal" in="SourceGraphic" in2="BackgroundImageFix" result="shape"/>
<feTurbulence type="fractalNoise" baseFrequency="2.0320549011230469 2.0320549011230469" stitchTiles="stitch" numOctaves="3" result="noise" seed="7152" />
<feColorMatrix in="noise" type="luminanceToAlpha" result="alphaNoise" />
<feComponentTransfer in="alphaNoise" result="coloredNoise1">
<feFuncA type="discrete" tableValues="0 0 0 0 0 0 0 0 0 0 1 1 1 1 1 1 1 1 1 1 1 1 1 1 1 1 1 1 1 1 1 1 1 1 1 1 1 1 1 0 0 0 0 0 0 0 0 0 0 0 0 0 0 0 0 0 0 0 0 0 0 0 0 0 0 0 0 0 0 0 0 0 0 0 0 0 0 0 0 0 0 0 0 0 0 0 0 0 0 0 0 0 0 0 0 0 0 0 0 0 "/>
</feComponentTransfer>
<feComposite operator="in" in2="shape" in="coloredNoise1" result="noise1Clipped" />
<feComponentTransfer in="alphaNoise" result="coloredNoise2">
<feFuncA type="discrete" tableValues="0 0 0 0 0 0 0 0 0 0 0 0 0 0 0 0 0 0 0 0 0 0 0 0 0 0 0 0 0 0 0 0 0 0 0 0 0 0 0 0 0 0 0 0 0 0 0 0 0 0 0 0 0 0 0 0 0 0 0 0 0 1 1 1 1 1 1 1 1 1 1 1 1 1 1 1 1 1 1 1 1 1 1 1 1 1 1 1 1 1 0 0 0 0 0 0 0 0 0 0 "/>
</feComponentTransfer>
<feComposite operator="in" in2="shape" in="coloredNoise2" result="noise2Clipped" />
<feFlood flood-color="rgba(0, 0, 0, 0.25)" result="color1Flood" />
<feComposite operator="in" in2="noise1Clipped" in="color1Flood" result="color1" />
<feFlood flood-color="rgba(255, 255, 255, 0.25)" result="color2Flood" />
<feComposite operator="in" in2="noise2Clipped" in="color2Flood" result="color2" />
<feMerge result="effect4_noise_147_11643">
<feMergeNode in="shape" />
<feMergeNode in="color1" />
<feMergeNode in="color2" />
</feMerge>
<feBlend mode="normal" in="effect4_noise_147_11643" in2="effect3_dropShadow_147_11643" result="effect4_noise_147_11643"/>
</filter>
<filter id="filter3_dddn_147_11643" x="61.5725" y="268.131" width="250.799" height="62.5505" filterUnits="userSpaceOnUse" color-interpolation-filters="sRGB">
<feFlood flood-opacity="0" result="BackgroundImageFix"/>
<feColorMatrix in="SourceAlpha" type="matrix" values="0 0 0 0 0 0 0 0 0 0 0 0 0 0 0 0 0 0 127 0" result="hardAlpha"/>
<feOffset/>
<feGaussianBlur stdDeviation="0.414154"/>
<feColorMatrix type="matrix" values="0 0 0 0 0 0 0 0 0 0 0 0 0 0 0 0 0 0 0.04 0"/>
<feBlend mode="normal" in2="BackgroundImageFix" result="effect1_dropShadow_147_11643"/>
<feColorMatrix in="SourceAlpha" type="matrix" values="0 0 0 0 0 0 0 0 0 0 0 0 0 0 0 0 0 0 127 0" result="hardAlpha"/>
<feOffset dy="1.65662"/>
<feGaussianBlur stdDeviation="8.24167"/>
<feColorMatrix type="matrix" values="0 0 0 0 0.124496 0 0 0 0 0.497135 0 0 0 0 0.984431 0 0 0 0.6 0"/>
<feBlend mode="normal" in2="effect1_dropShadow_147_11643" result="effect2_dropShadow_147_11643"/>
<feColorMatrix in="SourceAlpha" type="matrix" values="0 0 0 0 0 0 0 0 0 0 0 0 0 0 0 0 0 0 127 0" result="hardAlpha"/>
<feOffset dy="-5.79816"/>
<feGaussianBlur stdDeviation="10.1054"/>
<feColorMatrix type="matrix" values="0 0 0 0 0.166667 0 0 0 0 0 0 0 0 0 1 0 0 0 0.58 0"/>
<feBlend mode="normal" in2="effect2_dropShadow_147_11643" result="effect3_dropShadow_147_11643"/>
<feBlend mode="normal" in="SourceGraphic" in2="BackgroundImageFix" result="shape"/>
<feTurbulence type="fractalNoise" baseFrequency="2.4145593643188477 2.4145593643188477" stitchTiles="stitch" numOctaves="3" result="noise" seed="7152" />
<feColorMatrix in="noise" type="luminanceToAlpha" result="alphaNoise" />
<feComponentTransfer in="alphaNoise" result="coloredNoise1">
<feFuncA type="discrete" tableValues="0 0 0 0 0 0 0 0 0 0 1 1 1 1 1 1 1 1 1 1 1 1 1 1 1 1 1 1 1 1 1 1 1 1 1 1 1 1 1 0 0 0 0 0 0 0 0 0 0 0 0 0 0 0 0 0 0 0 0 0 0 0 0 0 0 0 0 0 0 0 0 0 0 0 0 0 0 0 0 0 0 0 0 0 0 0 0 0 0 0 0 0 0 0 0 0 0 0 0 0 "/>
</feComponentTransfer>
<feComposite operator="in" in2="shape" in="coloredNoise1" result="noise1Clipped" />
<feComponentTransfer in="alphaNoise" result="coloredNoise2">
<feFuncA type="discrete" tableValues="0 0 0 0 0 0 0 0 0 0 0 0 0 0 0 0 0 0 0 0 0 0 0 0 0 0 0 0 0 0 0 0 0 0 0 0 0 0 0 0 0 0 0 0 0 0 0 0 0 0 0 0 0 0 0 0 0 0 0 0 0 1 1 1 1 1 1 1 1 1 1 1 1 1 1 1 1 1 1 1 1 1 1 1 1 1 1 1 1 1 0 0 0 0 0 0 0 0 0 0 "/>
</feComponentTransfer>
<feComposite operator="in" in2="shape" in="coloredNoise2" result="noise2Clipped" />
<feFlood flood-color="rgba(0, 0, 0, 0.25)" result="color1Flood" />
<feComposite operator="in" in2="noise1Clipped" in="color1Flood" result="color1" />
<feFlood flood-color="rgba(255, 255, 255, 0.25)" result="color2Flood" />
<feComposite operator="in" in2="noise2Clipped" in="color2Flood" result="color2" />
<feMerge result="effect4_noise_147_11643">
<feMergeNode in="shape" />
<feMergeNode in="color1" />
<feMergeNode in="color2" />
</feMerge>
<feBlend mode="normal" in="effect4_noise_147_11643" in2="effect3_dropShadow_147_11643" result="effect4_noise_147_11643"/>
</filter>
<linearGradient id="paint0_linear_147_11643" x1="187.5" y1="0" x2="187.5" y2="812" gradientUnits="userSpaceOnUse">
<stop offset="0.567308"/>
<stop offset="1" stop-color="#222222"/>
</linearGradient>
<radialGradient id="paint1_radial_147_11643" cx="0" cy="0" r="1" gradientUnits="userSpaceOnUse" gradientTransform="translate(91.4979 255.205) rotate(-6.17895) scale(210.726 74.628)">
<stop stop-color="#99CFFF"/>
<stop offset="0.32" stop-color="#776FFF"/>
<stop offset="0.693318" stop-color="#FF85D8"/>
<stop offset="1" stop-color="#FFC62B"/>
</radialGradient>
<linearGradient id="paint2_linear_147_11643" x1="24" y1="691.979" x2="351" y2="691.979" gradientUnits="userSpaceOnUse">
<stop stop-color="#99CEFC"/>
<stop offset="0.283654" stop-color="#A759D3"/>
<stop offset="0.745192" stop-color="#D8505B"/>
<stop offset="1" stop-color="#FFC62B"/>
</linearGradient>
</defs>
</svg>
